<svg xmlns="http://www.w3.org/2000/svg" xmlns:xlink="http://www.w3.org/1999/xlink" width="146" height="107.652" viewBox="0 0 146 107.652">
  <defs>
    <clipPath id="clip-path">
      <path id="Path_410" data-name="Path 410" d="M78.4,90.8H186.051V198.449H78.4Zm0,0"/>
    </clipPath>
    <clipPath id="clip-path-2">
      <path id="Path_414" data-name="Path 414" d="M59,137H205v53H59Zm0,0"/>
    </clipPath>
    <clipPath id="clip-path-3">
      <path id="Path_413" data-name="Path 413" d="M132.266,240.348l-72.5-72.5,72.5-72.5,72.5,72.5Zm0,0"/>
    </clipPath>
    <clipPath id="clip-path-5">
      <path id="Path_418" data-name="Path 418" d="M63,139H201v48.309H63Zm0,0"/>
    </clipPath>
    <clipPath id="clip-path-6">
      <path id="Path_417" data-name="Path 417" d="M132.266,232.05l-68.59-66.269,68.59-66.27,68.589,66.27Zm0,0" transform="translate(-63.676 -99.512)"/>
    </clipPath>
    <clipPath id="clip-path-8">
      <path id="Path_473" data-name="Path 473" d="M114,95.551h36.457V148H114Zm0,0"/>
    </clipPath>
  </defs>
  <g id="Group_638" data-name="Group 638" transform="translate(-10899.5 -14324.297)">
    <g id="Group_566" data-name="Group 566" transform="translate(10840.5 14233.5)" clip-path="url(#clip-path)">
      <path id="Path_409" data-name="Path 409" d="M132.227,198.449a53.84,53.84,0,1,1,38.054-15.769A53.429,53.429,0,0,1,132.227,198.449Zm0-104.426A50.607,50.607,0,1,0,168,108.848,50.273,50.273,0,0,0,132.227,94.023Zm0,0" fill="#ed1c24"/>
    </g>
    <g id="Group_569" data-name="Group 569" transform="translate(10840.5 14233.5)" clip-path="url(#clip-path-2)">
      <g id="Group_568" data-name="Group 568" clip-path="url(#clip-path-3)">
        <g id="Group_567" data-name="Group 567" clip-path="url(#clip-path-3)">
          <path id="Path_411" data-name="Path 411" d="M81.445,189.523a71.914,71.914,0,0,1,101.645,0l21.676-21.675a102.519,102.519,0,0,0-145,0Zm0,0" fill="#ed1c24"/>
        </g>
      </g>
    </g>
    <g id="Group_572" data-name="Group 572" transform="translate(10840.5 14233.5)" clip-path="url(#clip-path-5)">
      <g id="Group_571" data-name="Group 571" transform="translate(63.676 100.848)" clip-path="url(#clip-path-6)">
        <g id="Group_570" data-name="Group 570" clip-path="url(#clip-path-6)">
          <path id="Path_415" data-name="Path 415" d="M84.184,186.954c26.535-25.633,69.632-25.633,96.164,0l20.507-19.813c-37.886-36.605-99.292-36.605-137.179,0Zm0,0" transform="translate(-63.676 -100.871)" fill="#fff"/>
        </g>
      </g>
    </g>
    <g id="Group_575" data-name="Group 575" transform="translate(10840.5 14233.5)">
      <g id="Group_574" data-name="Group 574" transform="translate(103.666 183.82)">
        <g id="Group_573" data-name="Group 573">
          <path id="Path_419" data-name="Path 419" d="M11.375-6.109c.113.148.129.25.047.313s-.234.055-.484,0a1.878,1.878,0,0,0-.859.047l-.984.2a2.316,2.316,0,0,0-.672.219,2.571,2.571,0,0,1-.531.234,8.41,8.41,0,0,0-1.359.734,5.837,5.837,0,0,0-1.141.906,2.492,2.492,0,0,0-.531.656c.039.117.586.074,1.641-.125l1-.187.344-.719a2.882,2.882,0,0,1,.484-.828c.164-.094.285.07.359.484a1.509,1.509,0,0,1-.016.984c-.043.074-.023.2.063.375a.823.823,0,0,0,.313.344c.051.043.035.156-.047.344a.492.492,0,0,1-.187.219.459.459,0,0,1-.3,0c-.219-.031-.352,0-.391.078s.035.117.2.125a5.613,5.613,0,0,0,.969.063,2,2,0,0,0,.938-.156,2.071,2.071,0,0,0,.453-.922,6.367,6.367,0,0,1,.328-.828c.094-.1.207-.1.344,0a.946.946,0,0,1,.344.469.9.9,0,0,1,.063.438,1.632,1.632,0,0,1-.172.469l-.234.484.5.422a1.41,1.41,0,0,1,.406.453.21.21,0,0,1-.062.3q-.064.064-.656-.094l-.625-.156-.2.406c-.117.242-.2.4-.25.484a1.665,1.665,0,0,0-.125.344,1.648,1.648,0,0,0-.062.281.941.941,0,0,0,.078.266,1.529,1.529,0,0,0,.141.3c.051.07.133.2.25.391a13.509,13.509,0,0,1,.828,1.266,5.392,5.392,0,0,0,.781,1.063c.438.426.625.711.563.859-.086.164-.359.191-.828.078a1.92,1.92,0,0,1-1.016-.516,5.845,5.845,0,0,1-.734-1.5,6.642,6.642,0,0,0-.563-1.281c-.043-.023-.227.336-.547,1.078C8.7,4.02,8.273,4.613,7.953,4.531q-.176-.035-.375-.609A5.711,5.711,0,0,1,7.3,2.609a6.144,6.144,0,0,0-.141-1.047A.372.372,0,0,0,6.828,1.3a.755.755,0,0,0-.562.047,2.869,2.869,0,0,0-.625.609,2.61,2.61,0,0,1-.484.5.232.232,0,0,1-.25-.031.373.373,0,0,1-.187-.266,3.822,3.822,0,0,1-.031-.625V.781L4.094.891a1.4,1.4,0,0,1-.719.047C3.25.883,3.2.758,3.219.563c.02-.43.145-.648.375-.672A3.528,3.528,0,0,0,4.7-.531a9.111,9.111,0,0,0,1.453-.875c.457-.3.617-.477.484-.531a2.409,2.409,0,0,0-.891.094c-.5.117-.8.188-.891.219a4.059,4.059,0,0,1-.687.047,2.432,2.432,0,0,0-.531.109,1.45,1.45,0,0,0-.5.3c-.344.25-.809.563-1.391.938A6.392,6.392,0,0,0,.859.375C.836.426.691.508.422.625A1.01,1.01,0,0,1-.719.328C-.8.266-.8.223-.7.2h.234A1.546,1.546,0,0,0,.359-.062,20,20,0,0,0,2.125-1.344a6.1,6.1,0,0,0,1.391-1.3.77.77,0,0,1,.172-.266.435.435,0,0,1,.234-.062c.164.023.66-.3,1.484-.953A16.425,16.425,0,0,1,7.25-5.187a3.926,3.926,0,0,1,1.3-.594c.113-.02.164-.051.156-.094-.023-.1-.5-.1-1.422.016A2.045,2.045,0,0,1,5.406-6.3q-.234-.217-.187-.281a1.507,1.507,0,0,1,.469.016,2.028,2.028,0,0,1,.516.109,9.842,9.842,0,0,0,2.031.063q1.9-.059,2.406-.047A.82.82,0,0,1,11.375-6.109ZM9.578-.719c.082-.156-.023-.207-.312-.156a.819.819,0,0,1-.609-.109.926.926,0,0,0-.422-.109,2.67,2.67,0,0,0-.547.188,1.72,1.72,0,0,0-.547.328,3.491,3.491,0,0,0-.359.641c-.211.445-.3.7-.266.766S6.941.781,7.672.5A7.64,7.64,0,0,0,8.938-.125,1.561,1.561,0,0,0,9.578-.719ZM8.563,2.031a1.617,1.617,0,0,0,.25-.766c-.031-.094-.2-.137-.5-.125A1.449,1.449,0,0,0,7.7,1.25a.442.442,0,0,0-.219.328,1.966,1.966,0,0,0,.047.656.833.833,0,0,0,.219.484c.133.113.254.125.359.031A2.22,2.22,0,0,0,8.563,2.031ZM5.281.625c.113-.086.145-.156.094-.219S5.273.383,5.2.5c-.125.113-.164.188-.109.219Q5.123.748,5.281.625Zm4.7-9.406a.132.132,0,0,1,.031-.062c.02-.008.047,0,.078.031a.511.511,0,0,1,.125.109q.076.082.234.281a1.738,1.738,0,0,1,.344.641.708.708,0,0,1,.016.484c-.074.086-.324.047-.75-.109s-.617-.254-.594-.3a1.44,1.44,0,0,1,.313-.266.623.623,0,0,0,.25-.172A.467.467,0,0,0,10-8.406.5.5,0,0,1,9.984-8.781Zm0,0" fill="#4b1514"/>
        </g>
      </g>
    </g>
    <g id="Group_578" data-name="Group 578" transform="translate(10840.5 14233.5)">
      <g id="Group_577" data-name="Group 577" transform="translate(118.095 190.233)">
        <g id="Group_576" data-name="Group 576">
          <path id="Path_420" data-name="Path 420" d="M10.875-.8c-.293-.414-.383-.617-.266-.609a2.365,2.365,0,0,1,.75.422A5.5,5.5,0,0,1,12.578.234c.477.6.7.984.672,1.141a.376.376,0,0,1-.437.359.823.823,0,0,1-.656-.359c-.137-.211-.32-.516-.547-.922S11.133-.367,10.875-.8Zm-.812-9.234q.047-.047.188.188a5.279,5.279,0,0,1,.3.516,1.561,1.561,0,0,1,.156.406.4.4,0,0,0,.125.266,1.564,1.564,0,0,0,.438.219,1.389,1.389,0,0,1,.547.375.237.237,0,0,1-.062.344,2.514,2.514,0,0,1-.687.406,1.428,1.428,0,0,0-.516.281.591.591,0,0,0-.125.3q-.047.316.047.375a1.009,1.009,0,0,0,.547-.016,1.64,1.64,0,0,1,.969.016,1.479,1.479,0,0,1,.625.281.3.3,0,0,1,.047.234,1.85,1.85,0,0,1-.266.422c-.242.313-.391.465-.453.453-.125-.008-.141.059-.047.2a.5.5,0,0,0,.219.234c.332.2.332.391,0,.578a8.758,8.758,0,0,1-.891.344,5.073,5.073,0,0,0-.922.344.467.467,0,0,0-.25.281,1.2,1.2,0,0,1-.375.563.785.785,0,0,0-.25.328,3.572,3.572,0,0,0-.141.672c-.074.5-.172,1.09-.3,1.766a6.67,6.67,0,0,1-.2.875.345.345,0,0,1-.25.2.517.517,0,0,1-.516-.094A2.775,2.775,0,0,1,7.5.641L7.031-.219l-.25-.375L5.969-.2c-.555.25-.922.41-1.109.484a.9.9,0,0,1-.406.109c-.086-.012-.184.082-.3.281a1.341,1.341,0,0,1-.625.516.807.807,0,0,1-.687.031A.256.256,0,0,1,2.688.953.322.322,0,0,1,2.922.719,1.613,1.613,0,0,0,3.391.172a3.435,3.435,0,0,0,.422-.859l.141-.547L3.609-1.2a2.692,2.692,0,0,0-.687.141.774.774,0,0,1-.469.016c-.094-.039-.168-.16-.219-.359a.974.974,0,0,1,.016-.687A2.253,2.253,0,0,1,2.922-2.7c.457-.312.688-.5.688-.562s-.168-.035-.531.109l-1.109.422a2.938,2.938,0,0,0-.734.328.369.369,0,0,1-.391.031C.75-2.406.691-2.445.672-2.5a.732.732,0,0,1,.063-.375,1.091,1.091,0,0,1,.172-.516A.384.384,0,0,1,1.266-3.5Q1.9-3.406,4-5.234c.738-.633,1.031-.961.875-.984a1.472,1.472,0,0,0-.547.188A3.436,3.436,0,0,0,3.75-5.7c-.312.313-.523.344-.625.094A1.3,1.3,0,0,1,3.391-6.7a1.729,1.729,0,0,0,.125-.187c.2-.258.273-.391.234-.391-.012,0-.039.008-.078.016a5.1,5.1,0,0,1-1.609.125c-.555-.051-.887-.156-1-.312C.957-7.578.953-7.66,1.047-7.7c.094-.02.348-.047.766-.078a9.948,9.948,0,0,0,1.859-.531A14.231,14.231,0,0,1,5.125-8.8,1.208,1.208,0,0,0,5.516-9a.713.713,0,0,1,.594-.141,3.482,3.482,0,0,1,.531.3c.145.094.211.164.2.2a6.079,6.079,0,0,1-1,.8c-.656.469-.977.727-.953.766s.156.047.375.016a1.193,1.193,0,0,1,.75.156.76.76,0,0,1,.328.219.268.268,0,0,1,.047.266,1,1,0,0,1-.25.344,5.2,5.2,0,0,1-.641.469q-1.207.861-.891.828a.487.487,0,0,0,.172-.031A3.718,3.718,0,0,0,5.2-5a.574.574,0,0,1,.5.016l.594.25c.281.094.285.277.016.547-.105.094-.258.215-.453.359-.387.293-.586.508-.594.641s.156.262.5.375c.363.105.551.219.563.344s-.137.266-.469.453a2,2,0,0,0-.562.391,3.49,3.49,0,0,0-.422.719c-.219.406-.3.641-.25.7s.258-.02.625-.25a4.957,4.957,0,0,0,.938-.688c.375-.332.555-.535.547-.609a1.379,1.379,0,0,1,.031-.266c.031-.113.078-.164.141-.156s.082.07.063.172c-.031.219.129.188.484-.094a.91.91,0,0,0,.25-.266q.029-.059-.047-.281c-.105-.219-.133-.367-.078-.453a.2.2,0,0,0-.047-.281,1.439,1.439,0,0,1-.2-.641,1.737,1.737,0,0,1-.062-.516,1.975,1.975,0,0,1,.2-.484A3.436,3.436,0,0,1,7.922-5.7c.156-.187.441-.477.859-.875a2.827,2.827,0,0,0,.578-.609c.008-.07-.125-.113-.406-.125a1.389,1.389,0,0,1-.859-.2.556.556,0,0,1-.312-.578c.008-.051.188-.055.531-.016a3.056,3.056,0,0,0,1.031-.047l.531-.156.063-.828A2.711,2.711,0,0,1,10.063-10.031Zm-.75,3.906c.02-.125,0-.2-.062-.234s-.117,0-.187.078q-.27.281-.234.422v.047a.415.415,0,0,0,.313-.047A.393.393,0,0,0,9.313-6.125Zm1.875.234q.012-.076-.047-.094a.949.949,0,0,0-.281.031.221.221,0,0,0-.187.109c-.023.055,0,.105.078.156.051.043.133.039.25-.016S11.176-5.828,11.188-5.891Zm-.781.469c.02-.125,0-.18-.062-.172s-.121.074-.172.188c-.117.273-.141.406-.078.406a.311.311,0,0,0,.125-.062A.747.747,0,0,0,10.406-5.422Zm-1.469.953A1.038,1.038,0,0,0,8.906-4.8a.639.639,0,0,0-.3-.141l-.375-.078-.062.406a1.444,1.444,0,0,0,.016.578c.039.137.109.215.2.234a.405.405,0,0,0,.328-.109A.94.94,0,0,0,8.938-4.469Zm-.766,3.7a1.074,1.074,0,0,0,.047-.422c-.012-.051-.074-.086-.187-.109-.168-.02-.258.008-.266.078s-.059.086-.141.063a.311.311,0,0,0-.2.109A.386.386,0,0,0,7.3-.828c-.012.031.086.125.3.281A1.359,1.359,0,0,0,8-.3C8.051-.285,8.109-.441,8.172-.766ZM4.844-11.859c.039-.051.191.016.453.2a2.548,2.548,0,0,1,.625.594,1.206,1.206,0,0,1,.219.547.381.381,0,0,1-.109.391,3.686,3.686,0,0,1-.906.234c-.523.105-.8.133-.828.078-.012-.02.094-.113.313-.281a1.053,1.053,0,0,0,.453-.453.473.473,0,0,0,0-.469,2.672,2.672,0,0,1-.2-.516C4.816-11.707,4.813-11.816,4.844-11.859Zm0,0" fill="#4b1514"/>
        </g>
      </g>
    </g>
    <g id="Group_581" data-name="Group 581" transform="translate(10840.5 14233.5)">
      <g id="Group_580" data-name="Group 580" transform="translate(133.765 192.169)">
        <g id="Group_579" data-name="Group 579">
          <path id="Path_421" data-name="Path 421" d="M2.406-6.844A3.219,3.219,0,0,1,3.266-7.5a1.259,1.259,0,0,1,.766-.047c.258.063.457.367.594.906a2.734,2.734,0,0,1,.031,1.469q-.129.516,0,.516c.051,0,.129-.1.234-.3a5.737,5.737,0,0,1,.844-1.578c.094-.07.1.023.016.281-.012.055-.023.094-.031.125a2.627,2.627,0,0,0-.156.891A5.329,5.329,0,0,1,5.219-4a6.646,6.646,0,0,1-.547,1.219,1.49,1.49,0,0,0-.234.641c-.043.418-.258.531-.641.344a.894.894,0,0,1-.484-.453,1.547,1.547,0,0,1-.187-.687,15.374,15.374,0,0,1,.109-1.672,5.889,5.889,0,0,0,.078-1.375c-.043-.031-.219.086-.531.344a4.261,4.261,0,0,1-.766.484,2.651,2.651,0,0,1-.828.188A2.42,2.42,0,0,1,.391-5C.148-5.051.02-5.117,0-5.2c0-.062.148-.141.453-.234A5.247,5.247,0,0,0,2.406-6.844Zm5.313-4.594c-.074-.445-.086-.672-.031-.672a1.663,1.663,0,0,1,.578.344,1.205,1.205,0,0,0,.781.328,2.128,2.128,0,0,1,.766.047c.258.063.406.152.438.266a.167.167,0,0,1-.078.188,3.836,3.836,0,0,1-.547.2,2.349,2.349,0,0,0-.734.359,1.065,1.065,0,0,0-.141.594.857.857,0,0,0,.078.563.357.357,0,0,0,.359.109,1.853,1.853,0,0,1,.656.094.838.838,0,0,1,.453.281q.105.158-.094.375a.381.381,0,0,0-.094.328.9.9,0,0,1-.188.531c-.137.242-.2.367-.172.375l.3.109c.313.105.352.48.125,1.125-.125.438-.152.664-.078.672h.094a1.994,1.994,0,0,1,.75.172,1.232,1.232,0,0,1,.547.219.942.942,0,0,1,.219.406A3.658,3.658,0,0,1,12.031-3.3a2.4,2.4,0,0,1-.609,2.109A1.593,1.593,0,0,1,11-.828a1.81,1.81,0,0,1-.516.047,7.523,7.523,0,0,0-1.078.109c-.344.063-.523.07-.531.016s.145-.18.469-.391a3.606,3.606,0,0,0,.922-.906,1.746,1.746,0,0,0,.438-.922,3.061,3.061,0,0,0-.109-1.3c-.086-.133-.312-.1-.688.109A6.029,6.029,0,0,0,8.281-2.969a1.844,1.844,0,0,1-.453.375c-.125.055-.258.277-.391.672a2.856,2.856,0,0,1-.344.766.229.229,0,0,1-.312.063c-.137-.039-.234-.254-.3-.641s-.039-.633.078-.75a3.678,3.678,0,0,0,.5-.859A2.07,2.07,0,0,0,7.344-4.2q0-.012-.047,0a.55.55,0,0,0-.125.031,1.909,1.909,0,0,0-.187.078,1.7,1.7,0,0,1-.609.234.561.561,0,0,1-.391-.172c-.105-.145-.141-.254-.109-.328s.176-.164.438-.281a4.685,4.685,0,0,0,1.141-.781A2.861,2.861,0,0,0,8.2-6.3a.465.465,0,0,0,.047-.281.585.585,0,0,0-.172-.187.378.378,0,0,0-.406-.062,3.185,3.185,0,0,0-.7.609q-.5.41-.7.375c-.125-.02-.215-.18-.266-.484a.762.762,0,0,1,.016-.359A1.425,1.425,0,0,1,6.3-7.062,9.578,9.578,0,0,0,7.063-8.3a2.743,2.743,0,0,0,.422-.984.125.125,0,0,0-.078,0A.338.338,0,0,0,7.3-9.2a1.45,1.45,0,0,1-.172.141,2.223,2.223,0,0,1-.625.469,3.32,3.32,0,0,0-.516.328,1.031,1.031,0,0,1-.594.219A.862.862,0,0,1,4.8-8.156a.373.373,0,0,1-.156-.266c0-.082.066-.133.2-.156.039-.008.457-.289,1.25-.844s1.316-.93,1.578-1.141a.366.366,0,0,0,.109-.266C7.781-10.93,7.758-11.133,7.719-11.437Zm-4.531-.437c-.023-.156.172-.113.578.125a.762.762,0,0,0,.156.063,1.755,1.755,0,0,1,.875.781.562.562,0,0,1-.25.719,4.387,4.387,0,0,1-.937.375,2.257,2.257,0,0,1-.812.172c-.023-.031.051-.133.219-.312.477-.508.707-.863.688-1.062a1.127,1.127,0,0,0-.266-.469A1.045,1.045,0,0,1,3.188-11.875Zm4.5-1.625c.07-.32.348-.344.828-.062.32.2.469.375.438.531s-.227.32-.609.484a1.986,1.986,0,0,1-.766.188c-.293.023-.445-.016-.453-.109q-.018-.059.234-.422A2.163,2.163,0,0,0,7.688-13.5Zm0,0" fill="#4b1514"/>
        </g>
      </g>
    </g>
    <g id="Group_584" data-name="Group 584" transform="translate(10840.5 14233.5)">
      <g id="Group_583" data-name="Group 583" transform="translate(149.321 189.461)">
        <g id="Group_582" data-name="Group 582">
          <path id="Path_422" data-name="Path 422" d="M4.75-12.922a.114.114,0,0,1-.016-.062c.008-.019.039-.039.094-.062a.563.563,0,0,1,.219-.062,2.613,2.613,0,0,0,.344-.062,1.149,1.149,0,0,1,.625.031.712.712,0,0,1,.188.359c.051.18.047.281-.016.313a2.152,2.152,0,0,0-.406.422c-.2.25-.344.359-.437.328s-.1-.117-.047-.234a.832.832,0,0,0-.109-.5c-.105-.227-.2-.344-.281-.344A.184.184,0,0,1,4.75-12.922Zm-4.359-.3c-.086-.164.16-.27.734-.312a1,1,0,0,0,.266,0,1.585,1.585,0,0,0,.672-.078,1.06,1.06,0,0,1,.469-.109c.176-.008.281.023.313.094a.8.8,0,0,1-.094.516l-.141.359.375.438a13.631,13.631,0,0,0,1.437,1.3c.7.555,1.172.949,1.422,1.187a1.9,1.9,0,0,0,.484.375c.051-.02.086-.094.109-.219a1.193,1.193,0,0,0-.016-.422.707.707,0,0,0-.109-.328c-.094-.1-.168-.144-.219-.125s-.1-.008-.141-.094c-.086-.187.066-.27.453-.25a1.657,1.657,0,0,1,1,.219,1.162,1.162,0,0,1,.25.266,1.449,1.449,0,0,1,.078.422,1.655,1.655,0,0,1-.187.859c-.137.23-.18.391-.125.484a7.1,7.1,0,0,0,.766.859c.477.492.961.984,1.453,1.484a10.677,10.677,0,0,1,.953,1.047c.145.2.172.344.078.438a.611.611,0,0,1-.3.156,1.505,1.505,0,0,1-.562-.3,3.939,3.939,0,0,1-.687-.594,11.026,11.026,0,0,0-.891-.922c-.43-.426-.715-.723-.859-.891s-.262-.254-.344-.266c-.168-.008-.336.121-.5.391a2.271,2.271,0,0,0-.3.922q-.047.457.7.422a.945.945,0,0,1,.469.109.427.427,0,0,1,.234.3,1.644,1.644,0,0,1-.3.672,3.969,3.969,0,0,1-.578.781,1.974,1.974,0,0,1-.734.5,1.731,1.731,0,0,1-.75.172A5.389,5.389,0,0,1,3.75-3.75L2.609-4.156,2.5-3.609A5.8,5.8,0,0,0,2.359-2.3c0,.531-.07.836-.2.906-.105.063-.172.086-.2.063a1.828,1.828,0,0,1-.187-.328,1.246,1.246,0,0,1-.109-.484,4.52,4.52,0,0,1,.109-.766c.113-.551.188-.91.219-1.078s.113-.5.25-1,.176-.754.125-.766-.141.078-.266.266a1.41,1.41,0,0,1-.375.328.341.341,0,0,1-.3.063,2.1,2.1,0,0,1-.375-.5A1,1,0,0,1,.875-6a1.365,1.365,0,0,1,.172-.453,3.9,3.9,0,0,0,.313-.828,1.429,1.429,0,0,0,.094-.625c-.012-.031-.125.023-.344.156a1.107,1.107,0,0,1-.344.125c-.043,0-.109-.066-.2-.2a.493.493,0,0,1-.141-.281,1.024,1.024,0,0,1,.141-.375c.113-.27.254-.656.422-1.156s.3-.922.391-1.266l.141-.625a1.642,1.642,0,0,0,.031-.359,1.774,1.774,0,0,0-.016-.3c-.012-.031-.09.043-.234.219s-.313.4-.5.672a5.128,5.128,0,0,0-.406.641,2.689,2.689,0,0,1-.359.563,2.275,2.275,0,0,0-.312.641,2.637,2.637,0,0,1-1,1.391,1.175,1.175,0,0,1-.641.031q-.451-.059-.516-.187c-.039-.07.063-.148.313-.234a2,2,0,0,0,.844-.625,16.512,16.512,0,0,0,1.2-1.844,10.3,10.3,0,0,1,.641-.984A3.038,3.038,0,0,0,.938-12.5a.366.366,0,0,1,.125-.2c.125-.051.109-.133-.047-.25a.6.6,0,0,0-.281-.094C.547-13.078.43-13.133.391-13.219Zm2.547,1.938c-.387-.32-.617-.469-.687-.437s-.172.234-.328.641a1.592,1.592,0,0,0-.187.7c.031.063.066.09.109.078a.311.311,0,0,0,.141-.172c.02-.1.2-.207.547-.312.313-.1.492-.1.547,0a4.461,4.461,0,0,1-.25,1.453q-.205.75,0,.656a.622.622,0,0,0,.094-.062,3.014,3.014,0,0,1,.313-.3.848.848,0,0,0,.234-.3q.029-.123.469,0a.9.9,0,0,1,.375.141.857.857,0,0,1,.188.328,1.79,1.79,0,0,0,.609.828c.531.438.875.621,1.031.547.1-.039.156-.172.156-.391a.828.828,0,0,0-.172-.516,4.8,4.8,0,0,0-.7-.719,3.685,3.685,0,0,1-.594-.562,3.979,3.979,0,0,0-.672-.625ZM4.578-7.859c-.2-.25-.32-.363-.359-.344a5.618,5.618,0,0,0-.812,1.672,9.922,9.922,0,0,0-.672,2.094c-.012.031.031.059.125.078a1.833,1.833,0,0,0,.391.031,5.441,5.441,0,0,1,1.125.172,1.958,1.958,0,0,0,1.078-.016,1.409,1.409,0,0,0,.656-.437.48.48,0,0,0,.141-.5,1.155,1.155,0,0,0-.656-.437,3.031,3.031,0,0,0-.953-.234.772.772,0,0,1-.562-.109A.318.318,0,0,1,4-6.281a.428.428,0,0,1,.172-.187,1.29,1.29,0,0,1,.375-.109A1.7,1.7,0,0,0,5.141-6.8a.246.246,0,0,0,0-.266A6.955,6.955,0,0,0,4.578-7.859Zm0,0" fill="#4b1514"/>
        </g>
      </g>
    </g>
    <g id="Group_587" data-name="Group 587" transform="translate(10840.5 14233.5)">
      <g id="Group_586" data-name="Group 586" transform="translate(85.348 175.617)">
        <g id="Group_585" data-name="Group 585">
          <path id="Path_423" data-name="Path 423" d="M1.5-6.578c-.617.125-1.18.23-1.687.313a5.083,5.083,0,0,1-1.437.016,2.945,2.945,0,0,1-1.25-.469A3.6,3.6,0,0,1-3.922-7.828a3.284,3.284,0,0,1-.312-3,5.9,5.9,0,0,1,2.594-2.812,8.969,8.969,0,0,1,1.422-.734,4.539,4.539,0,0,1,1.266-.359,2.035,2.035,0,0,1,1.047.109,1.439,1.439,0,0,1,.734.609,1.717,1.717,0,0,1,.266.891,1.975,1.975,0,0,1-.172.828,4.573,4.573,0,0,0-1.266.219,6.263,6.263,0,0,0-1.469.688,2.612,2.612,0,0,0-.969.906.728.728,0,0,0-.047.75.6.6,0,0,0,.484.281A2.876,2.876,0,0,0,.5-9.578l1.078-.266a7.548,7.548,0,0,1,3.25-.219,3.323,3.323,0,0,1,2.2,1.609,3.333,3.333,0,0,1,.3,3.047A6.278,6.278,0,0,1,4.547-2.437a9.464,9.464,0,0,1-1.531.781,5.441,5.441,0,0,1-1.422.344A2.643,2.643,0,0,1,.422-1.437a1.551,1.551,0,0,1-.8-.672A1.5,1.5,0,0,1-.594-3.125a2.781,2.781,0,0,1,.3-.922,5.26,5.26,0,0,0,1.563-.078,4.753,4.753,0,0,0,1.672-.656,2.416,2.416,0,0,0,1.016-.984.859.859,0,0,0-.016-.8.7.7,0,0,0-.609-.344,4.29,4.29,0,0,0-.969.109Zm0,0" fill="#4b1514"/>
        </g>
      </g>
    </g>
    <g id="Group_590" data-name="Group 590" transform="translate(10840.5 14233.5)">
      <g id="Group_589" data-name="Group 589" transform="translate(95.103 169.608)">
        <g id="Group_588" data-name="Group 588">
          <path id="Path_424" data-name="Path 424" d="M1.922-10.984-2.594-9.031a2.613,2.613,0,0,1-.469-.453,2.616,2.616,0,0,1-.437-.688,1.471,1.471,0,0,1-.109-1.172,1.254,1.254,0,0,1,.7-.672L3.922-15a2.4,2.4,0,0,1,1.562,1.422,2.342,2.342,0,0,1,.188,1A3.869,3.869,0,0,1,5.516-11.5L3.531-4.656,8.234-6.7A2.161,2.161,0,0,1,8.7-6.25a2.751,2.751,0,0,1,.438.688A1.518,1.518,0,0,1,9.25-4.406a1.178,1.178,0,0,1-.687.672L1.328-.578a2.513,2.513,0,0,1-.813-.484,2.362,2.362,0,0,1-.625-.922A2.243,2.243,0,0,1-.281-3.016,5.478,5.478,0,0,1-.094-4.156Zm0,0" fill="#4b1514"/>
        </g>
      </g>
    </g>
    <g id="Group_593" data-name="Group 593" transform="translate(10840.5 14233.5)">
      <g id="Group_592" data-name="Group 592" transform="translate(105.791 164.999)">
        <g id="Group_591" data-name="Group 591">
          <path id="Path_425" data-name="Path 425" d="M-1.453-10.25a1.782,1.782,0,0,1,.125-1.437,1.8,1.8,0,0,1,1.172-.844l6.375-1.75a2.368,2.368,0,0,1,.391.5,2.733,2.733,0,0,1,.313.7,1.491,1.491,0,0,1-.031,1.141,1.191,1.191,0,0,1-.75.531L2.063-10.281l.484,1.8L6.891-9.672a2.065,2.065,0,0,1,.391.484,2.351,2.351,0,0,1,.3.688,1.523,1.523,0,0,1-.016,1.125,1.2,1.2,0,0,1-.75.547l-3.547.969.547,2.016L8.781-5.2a2.5,2.5,0,0,1,.391.5,2.732,2.732,0,0,1,.313.7,1.5,1.5,0,0,1-.031,1.141,1.17,1.17,0,0,1-.75.547L3.063-.766A1.888,1.888,0,0,1,1.609-.891,1.835,1.835,0,0,1,.781-2.078Zm0,0" fill="#4b1514"/>
        </g>
      </g>
    </g>
    <g id="Group_596" data-name="Group 596" transform="translate(10840.5 14233.5)">
      <g id="Group_595" data-name="Group 595" transform="translate(116.785 162.008)">
        <g id="Group_594" data-name="Group 594">
          <path id="Path_426" data-name="Path 426" d="M6.234-10.516A2.975,2.975,0,0,0,4-9.3a3.893,3.893,0,0,0-.469,2.734A3.657,3.657,0,0,0,4.75-4.016,3.247,3.247,0,0,0,7.3-3.375a3.61,3.61,0,0,0,1.359-.391c.352-.2.691-.406,1.016-.625a1.773,1.773,0,0,1,.609.594,2.268,2.268,0,0,1,.313.891,1.667,1.667,0,0,1-.734,1.484,5.364,5.364,0,0,1-2.672.906A8.337,8.337,0,0,1,4.625-.594,5.641,5.641,0,0,1,2.438-1.5,5.428,5.428,0,0,1,.813-3.312a7.439,7.439,0,0,1-.844-2.8A7.05,7.05,0,0,1,.109-8.891a5.776,5.776,0,0,1,1.078-2.156A5.6,5.6,0,0,1,3-12.531a7.011,7.011,0,0,1,2.391-.719A5.433,5.433,0,0,1,8.281-13a1.75,1.75,0,0,1,1.188,1.406,1.541,1.541,0,0,1-.156.922,1.91,1.91,0,0,1-.516.656,5.954,5.954,0,0,0-1.172-.437A3.841,3.841,0,0,0,6.234-10.516Zm0,0" fill="#4b1514"/>
        </g>
      </g>
    </g>
    <g id="Group_599" data-name="Group 599" transform="translate(10840.5 14233.5)">
      <g id="Group_598" data-name="Group 598" transform="translate(128.484 160.52)">
        <g id="Group_597" data-name="Group 597">
          <path id="Path_427" data-name="Path 427" d="M12.125.375a5.888,5.888,0,0,1-.687.078,7.223,7.223,0,0,1-.922.031A3.785,3.785,0,0,1,9.7.375,1.437,1.437,0,0,1,9.125.109a1.049,1.049,0,0,1-.344-.5A2.2,2.2,0,0,1,8.7-1.234l.109-3.125L4.969-4.516,4.8.094a4.142,4.142,0,0,1-.687.094,7.346,7.346,0,0,1-.922.031A6.3,6.3,0,0,1,2.359.109a1.437,1.437,0,0,1-.578-.266,1.211,1.211,0,0,1-.344-.516,2.2,2.2,0,0,1-.078-.844L1.75-12.062c.145-.008.379-.031.7-.062a6.254,6.254,0,0,1,.922-.047,3.6,3.6,0,0,1,.8.109,1.458,1.458,0,0,1,.594.266,1.086,1.086,0,0,1,.344.516,2.195,2.195,0,0,1,.078.813l-.109,3.2,3.844.156.172-4.672c.145-.02.375-.047.688-.078a6.4,6.4,0,0,1,.938-.047,5.874,5.874,0,0,1,.8.109,1.463,1.463,0,0,1,.578.266,1.086,1.086,0,0,1,.344.516,2.3,2.3,0,0,1,.078.828Zm0,0" fill="#4b1514"/>
        </g>
      </g>
    </g>
    <g id="Group_602" data-name="Group 602" transform="translate(10840.5 14233.5)">
      <g id="Group_601" data-name="Group 601" transform="translate(142.231 161.066)">
        <g id="Group_600" data-name="Group 600">
          <path id="Path_428" data-name="Path 428" d="M12.7-1.906a4.916,4.916,0,0,1-.781,1.859A4.28,4.28,0,0,1,10.563,1.2a4.634,4.634,0,0,1-1.844.609,7.308,7.308,0,0,1-2.281-.125A7.222,7.222,0,0,1,4.281.875a4.844,4.844,0,0,1-1.469-1.3,4.316,4.316,0,0,1-.734-1.7,5.182,5.182,0,0,1,.047-2.016L3.7-11.609q.217.018.7.047a6.331,6.331,0,0,1,.922.125,4.228,4.228,0,0,1,.766.234,1.571,1.571,0,0,1,.531.359.913.913,0,0,1,.25.563,2.575,2.575,0,0,1-.062.844L5.563-3.484a2.056,2.056,0,0,0,.2,1.594,1.949,1.949,0,0,0,1.25.813,1.833,1.833,0,0,0,1.453-.234A2.108,2.108,0,0,0,9.3-2.687l1.563-7.406q.217.018.7.047a5.047,5.047,0,0,1,.906.109,3.8,3.8,0,0,1,.766.234,1.45,1.45,0,0,1,.531.375.975.975,0,0,1,.266.563,2.576,2.576,0,0,1-.062.844Zm0,0" fill="#4b1514"/>
        </g>
      </g>
    </g>
    <g id="Group_605" data-name="Group 605" transform="translate(10840.5 14233.5)">
      <g id="Group_604" data-name="Group 604" transform="translate(155.546 163.929)">
        <g id="Group_603" data-name="Group 603">
          <path id="Path_429" data-name="Path 429" d="M7.891-9.547a4,4,0,0,1,1.078.031,5.3,5.3,0,0,1,1.375.344,4.811,4.811,0,0,1,1.547.922,1.548,1.548,0,0,1,.594,1.188q-.035,1.1-.156,2.547t-.266,2.953c-.094,1.012-.187,2.008-.281,3S11.6,3.3,11.516,4.047a1.744,1.744,0,0,1-.844.156,3.442,3.442,0,0,1-1.109-.25,3.359,3.359,0,0,1-.734-.375,1.381,1.381,0,0,1-.406-.422,1.17,1.17,0,0,1-.172-.516A3.972,3.972,0,0,1,8.266,2L8.438.594,5.063-.734C4.813-.4,4.555-.055,4.3.3S3.8,1,3.547,1.328A3.319,3.319,0,0,1,2.938,1.3,3.328,3.328,0,0,1,2.2,1.078,2.65,2.65,0,0,1,.938.2,1.125,1.125,0,0,1,.828-.875a1.937,1.937,0,0,1,.281-.484q.17-.217.422-.562c.207-.289.484-.656.828-1.094s.734-.91,1.141-1.422.848-1.023,1.3-1.547S5.664-7,6.063-7.469s.77-.895,1.094-1.25S7.723-9.359,7.891-9.547Zm1.3,3.266q-.562.7-1.266,1.531C7.453-4.2,7-3.625,6.578-3.031l2.313.906q.123-1.107.234-2.172c.07-.707.133-1.352.188-1.937Zm0,0" fill="#4b1514"/>
        </g>
      </g>
    </g>
    <g id="Group_608" data-name="Group 608" transform="translate(10840.5 14233.5)">
      <g id="Group_607" data-name="Group 607" transform="translate(167.546 168.601)">
        <g id="Group_606" data-name="Group 606">
          <path id="Path_430" data-name="Path 430" d="M10.75,5.953a2.014,2.014,0,0,1-.906-.062,4.759,4.759,0,0,1-1.172-.516,4.22,4.22,0,0,1-1.094-.906A1.889,1.889,0,0,1,7.2,3l.359-4.484q.076-.668.141-1.266c.051-.406.125-.859.219-1.359l-.109-.047q-.486.973-1.062,1.938T5.641-.344L4.047,2.328a5.451,5.451,0,0,1-.641-.25,6.373,6.373,0,0,1-.8-.406,6.146,6.146,0,0,1-.641-.453A1.3,1.3,0,0,1,1.609.734,1.241,1.241,0,0,1,1.563.141a2.313,2.313,0,0,1,.313-.75L7.016-9.2a1.618,1.618,0,0,1,1.047-.062A4,4,0,0,1,9.234-8.8a4.3,4.3,0,0,1,1.078.922A1.851,1.851,0,0,1,10.7-6.437l-.359,4.484c-.031.469-.078.9-.141,1.3S10.082.176,10,.688l.109.031c.313-.648.644-1.273,1-1.891s.734-1.242,1.109-1.859l1.672-2.8a5.188,5.188,0,0,1,.625.25,6.42,6.42,0,0,1,.8.422,2.338,2.338,0,0,1,.984.938,1.481,1.481,0,0,1-.266,1.344Zm0,0" fill="#4b1514"/>
        </g>
      </g>
    </g>
    <path id="Path_431" data-name="Path 431" d="M144.453,134.3a5.127,5.127,0,0,0,2.32-6.438c-1.648-4.34-.382-5.812,2.219-6.347a4.961,4.961,0,0,0-4.855-.168c-2.992,1.253,1.222,9.226-2.754,9.089s-7.168-4.2-2.4-8.378,8.336-3.528,6.661-7.036c0,0-1.93-3.515.652-3.949,0,0-5.1-.91-5.738,2.621s-2.629,8.063-7.133,7.172-2.926-6.894.289-8.351,6-8.149,1.266-12.184c0,0-3.77-2.117-2.688-3.645,0,0-2.488,2.734-1.109,4.872a5.364,5.364,0,0,1-2.676,8.058c-4.3,1.836-.582,5.625-4.106,7.277s-7.617-5.7-1.855-9.156c0,0-5.754,2.293-5.2,7.024s7.187,9.382,4.308,11.183c-3.8,2.379-4.972-1.254-4.769-3.058,0,0-1.617,9.539,4.277,11.922,5.25,2.125,14.594,5.859,23.3-.508" transform="translate(10840.5 14233.5)" fill="#f35e19"/>
    <path id="Path_432" data-name="Path 432" d="M144.453,134.3l.106.2a5.876,5.876,0,0,0,1.421-1.133,5.459,5.459,0,0,0,.977-1.43,4.761,4.761,0,0,0,.449-2.031,5.967,5.967,0,0,0-.418-2.125,9.281,9.281,0,0,1-.726-3.176,3.14,3.14,0,0,1,.2-1.152,2.253,2.253,0,0,1,.93-1.105,4.918,4.918,0,0,1,1.652-.61.228.228,0,0,0,.09-.406,3.234,3.234,0,0,0-.691-.371,4.925,4.925,0,0,0-1.891-.36,6.428,6.428,0,0,0-2.5.532,1.784,1.784,0,0,0-.656.468,2.348,2.348,0,0,0-.52,1.075,6.105,6.105,0,0,0-.133,1.343c0,.645.063,1.329.121,2s.121,1.34.121,1.934a5.391,5.391,0,0,1-.07.945,2.482,2.482,0,0,1-.16.559,1.2,1.2,0,0,1-.445.547,1.546,1.546,0,0,1-.825.2c-.031,0-.062,0-.093,0a5.364,5.364,0,0,1-3.215-1.172,3.917,3.917,0,0,1-.992-1.215,3.336,3.336,0,0,1-.364-1.508,4.043,4.043,0,0,1,.532-1.941,7.827,7.827,0,0,1,1.777-2.141,25.843,25.843,0,0,1,4.984-3.316,7.863,7.863,0,0,0,1.555-1.043,2.2,2.2,0,0,0,.457-.613,1.746,1.746,0,0,0,.164-.758,3.761,3.761,0,0,0-.441-1.578l-.008-.012a6.544,6.544,0,0,1-.348-.781,4.44,4.44,0,0,1-.316-1.477,1.432,1.432,0,0,1,.238-.863,1.085,1.085,0,0,1,.344-.3,1.773,1.773,0,0,1,.57-.187.23.23,0,0,0,0-.453,9.674,9.674,0,0,0-1.434-.11,6.615,6.615,0,0,0-2.695.512,3.37,3.37,0,0,0-1.187.891,3.165,3.165,0,0,0-.688,1.515,12.693,12.693,0,0,1-1.793,4.762,5.791,5.791,0,0,1-1.691,1.683,4.266,4.266,0,0,1-2.309.649,5.511,5.511,0,0,1-1.07-.109,2.97,2.97,0,0,1-2.61-3.11,5.61,5.61,0,0,1,.836-2.82,4.955,4.955,0,0,1,2.114-1.985,6.5,6.5,0,0,0,2.742-2.7,8.72,8.72,0,0,0,1.183-4.312,7.168,7.168,0,0,0-.6-2.91,7.369,7.369,0,0,0-2-2.645l-.035-.027-.008,0a11.163,11.163,0,0,1-1.469-1.016,5.46,5.46,0,0,1-.91-.922,2.16,2.16,0,0,1-.281-.473,1.1,1.1,0,0,1-.1-.434.8.8,0,0,1,.153-.465.23.23,0,0,0-.356-.289,8.041,8.041,0,0,0-.789,1.094,5.054,5.054,0,0,0-.793,2.492,2.823,2.823,0,0,0,.453,1.567,5.639,5.639,0,0,1,.856,2.968,4.783,4.783,0,0,1-.758,2.629,5.766,5.766,0,0,1-2.672,2.125,4.841,4.841,0,0,0-1.332.813,3.229,3.229,0,0,0-1.016,1.769,7.77,7.77,0,0,0-.136,1.4,6.246,6.246,0,0,1-.235,1.886,2.121,2.121,0,0,1-.465.77,2.906,2.906,0,0,1-.929.648,2.224,2.224,0,0,1-.953.219,2.539,2.539,0,0,1-1.266-.363,4.242,4.242,0,0,1-1.555-1.664,5.248,5.248,0,0,1-.632-2.477,4.734,4.734,0,0,1,.625-2.371,5.919,5.919,0,0,1,2.14-2.1.228.228,0,0,0-.2-.407,11.494,11.494,0,0,0-2.68,1.614,8.289,8.289,0,0,0-1.851,2.054,5.488,5.488,0,0,0-.813,3.59,8.667,8.667,0,0,0,1,2.969,41.721,41.721,0,0,0,2.6,4,15.5,15.5,0,0,1,1.031,1.668,3.116,3.116,0,0,1,.4,1.316,1.061,1.061,0,0,1-.137.547,1.363,1.363,0,0,1-.477.465,4.149,4.149,0,0,1-2.129.75,1.894,1.894,0,0,1-1.046-.3,2.669,2.669,0,0,1-.965-1.281,4.575,4.575,0,0,1-.3-1.617,3.173,3.173,0,0,1,.019-.387.229.229,0,0,0-.453-.063,19.134,19.134,0,0,0-.207,2.883,15.092,15.092,0,0,0,.828,5.172,8.092,8.092,0,0,0,1.4,2.41,6.271,6.271,0,0,0,2.394,1.707c3.075,1.243,7.575,3.051,12.555,3.051a18.079,18.079,0,0,0,10.961-3.59l-.133-.183.106.2-.106-.2-.137-.188a17.642,17.642,0,0,1-10.691,3.5c-4.871,0-9.312-1.777-12.383-3.019a5.743,5.743,0,0,1-2.219-1.582,8.341,8.341,0,0,1-1.71-3.547,15.936,15.936,0,0,1-.411-3.735,20.109,20.109,0,0,1,.1-2.019c.023-.25.051-.446.07-.582.008-.067.016-.121.02-.153a.237.237,0,0,0,.008-.043v-.011l-.223-.039-.227-.024a4.024,4.024,0,0,0-.027.438,4.815,4.815,0,0,0,.617,2.359,2.767,2.767,0,0,0,.86.922,2.345,2.345,0,0,0,1.3.375,4.567,4.567,0,0,0,2.372-.82,1.77,1.77,0,0,0,.628-.621,1.548,1.548,0,0,0,.2-.778,2.781,2.781,0,0,0-.211-1,10.69,10.69,0,0,0-1.1-1.949c-.7-1.043-1.562-2.192-2.281-3.391a9.537,9.537,0,0,1-1.442-3.668,5.515,5.515,0,0,1-.035-.609,5.09,5.09,0,0,1,.785-2.691,8.626,8.626,0,0,1,2.692-2.614,11.245,11.245,0,0,1,1.152-.656c.145-.07.262-.125.344-.16a.635.635,0,0,1,.094-.039l.019-.012h.008l-.082-.215-.121-.195a6.312,6.312,0,0,0-2.3,2.262,5.192,5.192,0,0,0-.687,2.6,5.675,5.675,0,0,0,1.171,3.438,4.37,4.37,0,0,0,1.246,1.1,2.989,2.989,0,0,0,1.493.422,2.655,2.655,0,0,0,1.148-.262,3.368,3.368,0,0,0,1.082-.761,2.611,2.611,0,0,0,.512-.821,4.721,4.721,0,0,0,.277-1.57c.016-.4.02-.8.051-1.18a3.46,3.46,0,0,1,.465-1.613,3.515,3.515,0,0,1,1.711-1.328,6.206,6.206,0,0,0,2.875-2.3,5.23,5.23,0,0,0,.832-2.879,6.058,6.058,0,0,0-.93-3.218,2.369,2.369,0,0,1-.379-1.317,4.577,4.577,0,0,1,.731-2.254,6.863,6.863,0,0,1,.507-.746c.067-.09.125-.16.165-.207.019-.023.035-.039.046-.051l.012-.016,0,0-.168-.152-.187-.133a1.237,1.237,0,0,0-.239.73,1.572,1.572,0,0,0,.145.633,3.534,3.534,0,0,0,.707.992,9.089,9.089,0,0,0,1.406,1.152c.426.293.738.469.742.473l.114-.2-.149.176a6.952,6.952,0,0,1,1.883,2.48,6.725,6.725,0,0,1,.562,2.727,8.28,8.28,0,0,1-1.125,4.086,6.05,6.05,0,0,1-2.531,2.508,5.383,5.383,0,0,0-2.316,2.164,6.035,6.035,0,0,0-.9,3.058,3.426,3.426,0,0,0,2.977,3.559,5.8,5.8,0,0,0,1.16.121,4.749,4.749,0,0,0,2.551-.723,7.061,7.061,0,0,0,2.5-2.969,14.524,14.524,0,0,0,1.195-3.781,2.763,2.763,0,0,1,.59-1.3,3.286,3.286,0,0,1,1.645-1,6.975,6.975,0,0,1,1.886-.238,8.993,8.993,0,0,1,.973.051c.121.012.219.023.281.035a.585.585,0,0,1,.075.012h.019l0,0,.043-.227-.039-.226a2.182,2.182,0,0,0-.723.242,1.544,1.544,0,0,0-.64.687,2.1,2.1,0,0,0-.172.875,4.88,4.88,0,0,0,.363,1.684,6.639,6.639,0,0,0,.359.8l.2-.11-.207.1a3.3,3.3,0,0,1,.4,1.379,1.28,1.28,0,0,1-.121.559,1.542,1.542,0,0,1-.3.421,4.552,4.552,0,0,1-.992.727c-.633.379-1.457.8-2.41,1.371a22.022,22.022,0,0,0-3.18,2.309,8.191,8.191,0,0,0-1.879,2.265,4.539,4.539,0,0,0-.586,2.16,3.746,3.746,0,0,0,.414,1.715,4.606,4.606,0,0,0,1.856,1.875,5.982,5.982,0,0,0,2.742.762,1.03,1.03,0,0,0,.109,0,2,2,0,0,0,.969-.219,1.51,1.51,0,0,0,.5-.426,2.345,2.345,0,0,0,.391-.925,5.861,5.861,0,0,0,.1-1.141c0-.621-.062-1.3-.121-1.973s-.117-1.351-.117-1.965a4.506,4.506,0,0,1,.219-1.578,1.613,1.613,0,0,1,.312-.535,1.264,1.264,0,0,1,.493-.347,5.936,5.936,0,0,1,2.32-.5,4.583,4.583,0,0,1,1.719.324,3.7,3.7,0,0,1,.445.222,1.05,1.05,0,0,1,.109.071l.028.015,0,0,.14-.179-.047-.227a4.54,4.54,0,0,0-2.265,1.031,2.663,2.663,0,0,0-.649.969,3.594,3.594,0,0,0-.226,1.316,9.69,9.69,0,0,0,.758,3.34,5.534,5.534,0,0,1,.386,1.961,4.325,4.325,0,0,1-.406,1.836,5.287,5.287,0,0,1-1.379,1.774,5.389,5.389,0,0,1-.586.437,1.867,1.867,0,0,1-.176.109.325.325,0,0,0-.043.028l-.011,0,0,0-.028.015.137.188" transform="translate(10840.5 14233.5)" fill="#4b1615"/>
    <path id="Path_433" data-name="Path 433" d="M131.422,135.8s8.051.961,11.238-2.063,2.684-4.472,2.289-6.765a8.776,8.776,0,0,1,.91-5.012s-2.285,1.121-1.707,5.715c.309,2.441-1.886,5.734-5.683,3.566s-4.153-4.9-2.332-7.4A24.442,24.442,0,0,1,141.7,118.7c1.453-1.1,3-1.6,2.481-3.23-.414-1.289-1.086-2.75-.489-3.25,0,0-2.515,1.25-2.379,3.382.094,1.508-2.293,6.348-7.421,6.274s-5.079-3.469-4.024-6.149a8.511,8.511,0,0,1,3.422-4.476c1.258-.9,3.918-5.508,1.953-7.981s-3.109-2.878-3.082-3.711A6.782,6.782,0,0,0,133,103.3c1.031,1.707-.242,5.109-1.945,6.1s-3.782,1.645-3.7,3.11-.637,5.465-2.907,6.066-5.062-2.844-5.91-5.379c0,0,.344,5.024,3.035,6.973,1.91,1.383,4.168,4.695,1.879,6.863-2.511,2.371-5.586.039-5.586.039s-.1,6.477,13.559,8.727" transform="translate(10840.5 14233.5)" fill="#f8a30d"/>
    <path id="Path_434" data-name="Path 434" d="M117.2,128.957a16.544,16.544,0,0,1-.3-3.219c0-.269.008-.523.016-.765a4.14,4.14,0,0,0,.324.691,2.934,2.934,0,0,0,.543.676c.035.25.078.5.133.769a.646.646,0,0,0-.055-.039,2.114,2.114,0,0,0,.035.368,3.735,3.735,0,0,1-.175.562,4.431,4.431,0,0,1-.524.957m3.656-.863a4.454,4.454,0,0,1-.867-.09,4.642,4.642,0,0,0-.656-.969c0-.019-.008-.047-.016-.074h.082a3.779,3.779,0,0,0,1.516-.359c0,.007.008.019.012.027a9,9,0,0,0,.8,1.363,3.689,3.689,0,0,1-.868.1m2.219-.746c-.054-.078-.109-.16-.164-.243a9.1,9.1,0,0,1-.73-1.292,1.421,1.421,0,0,0,.218-.293,1.548,1.548,0,0,0,.2-.778,2.781,2.781,0,0,0-.211-1,7.107,7.107,0,0,0-.539-1.07,2.724,2.724,0,0,1,.218-.457,3.367,3.367,0,0,1,.762-.891c1.426,1.625,2.406,4.012.621,5.7-.125.114-.25.219-.375.317m-2.152-6.09c-.117-.168-.234-.336-.352-.508a3.274,3.274,0,0,1,.368-.262,2.994,2.994,0,0,1,.613-.273c-.1.133-.2.285-.309.457a5.78,5.78,0,0,0-.32.586m-1.137-1.641c-.269-.394-.531-.8-.777-1.211a9.537,9.537,0,0,1-1.442-3.668,5.515,5.515,0,0,1-.035-.609,5.09,5.09,0,0,1,.785-2.691,8.27,8.27,0,0,1,2.3-2.352,5.7,5.7,0,0,0-.492.723,5.192,5.192,0,0,0-.687,2.6,5.675,5.675,0,0,0,1.171,3.438,4.37,4.37,0,0,0,1.246,1.1,3.016,3.016,0,0,0,1.364.418c.015.047.031.094.047.137a2.7,2.7,0,0,0-.391.344,1.307,1.307,0,0,0-.176.238.546.546,0,0,0-.051.106c-.05.011-.113.023-.183.042a9.873,9.873,0,0,1-3.93-5.035,12.929,12.929,0,0,0,1.957,5.895c-.086.055-.176.113-.262.176a5.175,5.175,0,0,0-.445.351" transform="translate(10840.5 14233.5)" fill="#f14c1c"/>
    <path id="Path_435" data-name="Path 435" d="M117.125,129.051a21.533,21.533,0,0,1-.285-5.676,4.074,4.074,0,0,0,.9,2.621c.016.113.032.227.047.344a2.934,2.934,0,0,1-.543-.676,4.14,4.14,0,0,1-.324-.691c-.008.242-.016.5-.016.765a16.544,16.544,0,0,0,.3,3.219c-.023.031-.051.063-.074.094m2.27-2.09h-.079c-.007-.063-.023-.145-.035-.242a1.04,1.04,0,0,0,.114,0,3.569,3.569,0,0,0,1.425-.332c.032.07.063.14.094.211a3.779,3.779,0,0,1-1.516.359h0m2.785-1.148c-.035-.075-.071-.153-.1-.231.535-.648.281-1.543-.32-2.609a2.484,2.484,0,0,1,.09-.3,7.107,7.107,0,0,1,.539,1.07,2.781,2.781,0,0,1,.211,1,1.548,1.548,0,0,1-.2.778,1.421,1.421,0,0,1-.218.293m-1.371-4.317c-.133-.191-.27-.391-.411-.59.055-.054.11-.1.172-.156.118.172.235.34.352.508-.039.078-.078.156-.113.238m-1.2-1.723a12.076,12.076,0,0,1-2.273-5.007c-.551-4.731,5.2-7.024,5.2-7.024-5.082,3.051-2.5,9.129.6,9.387.023.078.05.156.074.234a3.016,3.016,0,0,1-1.364-.418,4.37,4.37,0,0,1-1.246-1.1,5.675,5.675,0,0,1-1.171-3.438,5.192,5.192,0,0,1,.687-2.6,5.7,5.7,0,0,1,.492-.723,8.27,8.27,0,0,0-2.3,2.352,5.09,5.09,0,0,0-.785,2.691,5.515,5.515,0,0,0,.035.609,9.537,9.537,0,0,0,1.442,3.668c.246.41.508.817.777,1.211-.058.051-.117.1-.172.156" transform="translate(10840.5 14233.5)" fill="#4b1413"/>
    <path id="Path_436" data-name="Path 436" d="M142.621,135.078a16.361,16.361,0,0,1-1.941-.125,6.341,6.341,0,0,0,1.98-1.219,13.841,13.841,0,0,0,1.383-1.492c.574.055,1.156.094,1.746.113l.406.012a5.633,5.633,0,0,1-1.031,1.153,5.389,5.389,0,0,1-.586.437,1.867,1.867,0,0,1-.176.109.325.325,0,0,0-.043.028l-.011,0,0,0-.028.015c-.476.352-.957.668-1.437.957-.082,0-.168,0-.254,0h0" transform="translate(10840.5 14233.5)" fill="#f14c1c"/>
    <path id="Path_437" data-name="Path 437" d="M142.879,135.074c.48-.289.961-.605,1.437-.957l.028-.015,0,0,.011,0a.325.325,0,0,1,.043-.028,1.867,1.867,0,0,0,.176-.109,5.389,5.389,0,0,0,.586-.437,5.633,5.633,0,0,0,1.031-1.153c.09,0,.18,0,.27,0a5.93,5.93,0,0,1-2.012,1.934c-.371.265-.738.519-1.109.754-.153.007-.309.015-.465.015" transform="translate(10840.5 14233.5)" fill="#4b1413"/>
    <path id="Path_438" data-name="Path 438" d="M140.813,131.945a4.747,4.747,0,0,1-2.344-.707c-.125-.074-.246-.144-.364-.218a27.7,27.7,0,0,0,3.368.855,3.021,3.021,0,0,1-.66.07" transform="translate(10840.5 14233.5)" fill="#f14c1c"/>
    <path id="Path_439" data-name="Path 439" d="M140.68,134.953a32.533,32.533,0,0,1-4.645-.957,18.476,18.476,0,0,1-3.058-1.078,6.3,6.3,0,0,1-2.137-1.508c-.211-.234-.383-.461-.559-.68a4,4,0,0,0-.582-.625,3.423,3.423,0,0,0-2.25-.761,4.742,4.742,0,0,0-1.535.258.031.031,0,0,1-.016-.016,4.55,4.55,0,0,0-1.652-.813,12.855,12.855,0,0,1-1.172-1.425c.125-.1.25-.2.375-.317,1.785-1.691.805-4.078-.621-5.7a4.734,4.734,0,0,1,.621-.449,5.561,5.561,0,0,0,.821-.113,3.75,3.75,0,0,0,.4-.114A23.625,23.625,0,0,0,138.1,131.02c.118.074.239.144.364.218a4.747,4.747,0,0,0,2.344.707,3.021,3.021,0,0,0,.66-.07c.84.16,1.7.281,2.57.367a13.841,13.841,0,0,1-1.383,1.492,6.341,6.341,0,0,1-1.98,1.219m-17.344-2.109c-.039-.289-.055-.555-.078-.817a4.4,4.4,0,0,0-.137-.843,3.049,3.049,0,0,0-.6-1.133,4.227,4.227,0,0,0-1.551-1.145,5.757,5.757,0,0,0-.711-.254.035.035,0,0,1-.008-.019,4.27,4.27,0,0,0-.262-.629,4.454,4.454,0,0,0,.867.09,3.689,3.689,0,0,0,.868-.1,12.689,12.689,0,0,0,1.468,1.711,3.955,3.955,0,0,1,.352,1.684,4.268,4.268,0,0,1-.1.937,5.2,5.2,0,0,0-.105.52m-5.438-5.406a2.114,2.114,0,0,1-.035-.368.646.646,0,0,1,.055.039c.008.036.012.071.02.11a1.885,1.885,0,0,1-.04.219m2.594-8.348a12.929,12.929,0,0,1-1.957-5.895,9.873,9.873,0,0,0,3.93,5.035,6.707,6.707,0,0,0-1.973.86" transform="translate(10840.5 14233.5)" fill="#f57f13"/>
    <path id="Path_440" data-name="Path 440" d="M147.781,133.492c-2.3,2.406-6.468,2.176-11.8.727s-5.3-2.981-6.426-3.942a3.967,3.967,0,0,0-5.434.938,4.352,4.352,0,0,0,2.387,6.426c3.82,1.441,17.418,5.047,22.258-3.282a3.222,3.222,0,0,0-.207-3.027,4.432,4.432,0,0,1-.774,2.16" transform="translate(10840.5 14233.5)" fill="#ed1d24"/>
    <path id="Path_441" data-name="Path 441" d="M147.781,133.492l-.164-.156a5.256,5.256,0,0,1-2.129,1.328,8.989,8.989,0,0,1-2.863.414,26.076,26.076,0,0,1-6.59-1.082,18.476,18.476,0,0,1-3.058-1.078,6.3,6.3,0,0,1-2.137-1.508c-.211-.234-.383-.461-.559-.68a4,4,0,0,0-.582-.625,3.423,3.423,0,0,0-2.25-.761,4.781,4.781,0,0,0-2.066.476,3.371,3.371,0,0,0-1.465,1.282,4.746,4.746,0,0,0-.449,1.113,5.445,5.445,0,0,0-.2,1.422,4.275,4.275,0,0,0,.672,2.351,4.9,4.9,0,0,0,2.477,1.864,34.233,34.233,0,0,0,11.051,2.043,17.053,17.053,0,0,0,6.492-1.137,10.032,10.032,0,0,0,5-4.285,2.206,2.206,0,0,0,.23-.664,4.261,4.261,0,0,0,.079-.825,3.935,3.935,0,0,0-.125-1,1.76,1.76,0,0,0-.43-.808.225.225,0,0,0-.238-.055.231.231,0,0,0-.149.2,6.031,6.031,0,0,1-.156.839,4.161,4.161,0,0,1-.223.653,1.848,1.848,0,0,1-.332.531l.164.156.164.16a2.288,2.288,0,0,0,.434-.683,5.411,5.411,0,0,0,.324-1.082c.059-.309.078-.528.082-.532l-.23-.023-.16.164a1.381,1.381,0,0,1,.312.606,3.536,3.536,0,0,1,.106.882,3.63,3.63,0,0,1-.071.735,1.82,1.82,0,0,1-.176.523,9.567,9.567,0,0,1-4.773,4.094,16.734,16.734,0,0,1-6.32,1.1,33.775,33.775,0,0,1-10.887-2.008,4.465,4.465,0,0,1-2.258-1.688,3.825,3.825,0,0,1-.6-2.1,4.926,4.926,0,0,1,.18-1.3,4.376,4.376,0,0,1,.406-1.008,2.916,2.916,0,0,1,1.27-1.1,4.326,4.326,0,0,1,1.863-.429,2.965,2.965,0,0,1,1.953.652,5.2,5.2,0,0,1,.7.785,6.3,6.3,0,0,0,1.672,1.543,15.131,15.131,0,0,0,4.148,1.657,26.341,26.341,0,0,0,6.707,1.1,9.351,9.351,0,0,0,3.008-.437,5.659,5.659,0,0,0,2.312-1.446l-.164-.16" transform="translate(10840.5 14233.5)" fill="#4b1615"/>
    <path id="Path_442" data-name="Path 442" d="M143.66,137.492a23.971,23.971,0,0,1-17.461-1.781l17.461,1.781" transform="translate(10840.5 14233.5)" fill="#ed1d24"/>
    <path id="Path_443" data-name="Path 443" d="M143.59,137.273l-.008,0a22.957,22.957,0,0,1-6.5.879,22.489,22.489,0,0,1-10.773-2.648.23.23,0,0,0-.215.406,22.986,22.986,0,0,0,10.988,2.7,23.252,23.252,0,0,0,6.648-.9.23.23,0,0,0-.14-.438" transform="translate(10840.5 14233.5)" fill="#4b1615"/>
    <path id="Path_444" data-name="Path 444" d="M126.273,130.277a3.9,3.9,0,0,0-2.144-1.3s-5.524-5.453-.75-8.328c0,0,1.656-.062,1.766-.7s-1.106-2.687-2-2.055c0,0-1.036,1.293-.79,1.735,0,0-4.738,4.3,1.024,9.933a4.368,4.368,0,0,1,.262,2.907,5.931,5.931,0,0,0,2.632-2.2" transform="translate(10840.5 14233.5)" fill="#6ac632"/>
    <path id="Path_445" data-name="Path 445" d="M126.273,130.277l.188-.132a3.336,3.336,0,0,0-.563-.559,4.54,4.54,0,0,0-1.714-.828l-.055.222.16-.164,0-.007a11.753,11.753,0,0,1-1.375-1.7,8.791,8.791,0,0,1-.863-1.6,4.767,4.767,0,0,1-.383-1.766,2.935,2.935,0,0,1,.4-1.519,3.926,3.926,0,0,1,1.434-1.371l-.121-.2.012.231a5.38,5.38,0,0,0,.879-.117,2.491,2.491,0,0,0,.664-.235,1.015,1.015,0,0,0,.273-.211.685.685,0,0,0,.164-.328.7.7,0,0,0,.012-.129,1.4,1.4,0,0,0-.047-.324,3.016,3.016,0,0,0-.246-.629,3.679,3.679,0,0,0-.656-.906,1.871,1.871,0,0,0-.43-.32,1.049,1.049,0,0,0-.5-.137.858.858,0,0,0-.5.164.374.374,0,0,0-.047.043s-.211.266-.426.605a3.92,3.92,0,0,0-.3.543,2.015,2.015,0,0,0-.1.282.983.983,0,0,0-.047.285.564.564,0,0,0,.066.277l.2-.113-.156-.168a5.974,5.974,0,0,0-.957,1.207,6.169,6.169,0,0,0-.949,3.234,6.442,6.442,0,0,0,.633,2.723,10.749,10.749,0,0,0,2.293,3.1l.16-.164-.2.106a3.993,3.993,0,0,1,.363,1.715,4.328,4.328,0,0,1-.125,1.031.229.229,0,0,0,.074.23.222.222,0,0,0,.238.036,8.781,8.781,0,0,0,1.133-.629,6.387,6.387,0,0,0,.914-.723,3.293,3.293,0,0,0,.707-.957.238.238,0,0,0-.023-.23l-.188.132-.207-.093a2.728,2.728,0,0,1-.609.82,6.481,6.481,0,0,1-1.254.918c-.187.109-.355.2-.473.254-.058.031-.105.051-.136.066l-.035.016-.008,0,0,0,.094.207.218.054a4.5,4.5,0,0,0,.141-1.14,4.432,4.432,0,0,0-.418-1.93.219.219,0,0,0-.043-.055,10.3,10.3,0,0,1-2.2-2.968,5.962,5.962,0,0,1-.59-2.528,5.726,5.726,0,0,1,.883-3,6.52,6.52,0,0,1,.6-.824c.082-.094.153-.168.2-.215.023-.023.042-.039.054-.051l.016-.015-.059-.063.059.063-.059-.063.059.063a.235.235,0,0,0,.047-.282s-.012-.019-.012-.054a.839.839,0,0,1,.027-.16,2.663,2.663,0,0,1,.172-.4,6.178,6.178,0,0,1,.379-.6c.059-.082.109-.149.145-.2l.043-.054.011-.016,0,0-.179-.141.132.184a.391.391,0,0,1,.231-.074.57.57,0,0,1,.211.043,1.493,1.493,0,0,1,.426.312,3.141,3.141,0,0,1,.558.8,2.571,2.571,0,0,1,.168.4,1.2,1.2,0,0,1,.055.3c0,.02,0,.039,0,.051a.224.224,0,0,1-.055.1.908.908,0,0,1-.336.2,3.556,3.556,0,0,1-.758.172c-.117.015-.218.023-.289.031-.035,0-.066,0-.086,0h-.019l-.008,0a.225.225,0,0,0-.109.031,4.387,4.387,0,0,0-1.59,1.531,3.376,3.376,0,0,0-.465,1.75,5.322,5.322,0,0,0,.438,2,10.512,10.512,0,0,0,1.453,2.411,12.386,12.386,0,0,0,.871,1,.286.286,0,0,0,.1.058,4.1,4.1,0,0,1,1.539.746,3.43,3.43,0,0,1,.367.336.944.944,0,0,1,.086.1l.02.023,0,.008.183-.137-.207-.093.207.093" transform="translate(10840.5 14233.5)" fill="#4b1615"/>
    <path id="Path_446" data-name="Path 446" d="M124.137,131.961c-.051-.078-.1-.16-.149-.238a3.268,3.268,0,0,0,.012-.336,4.632,4.632,0,0,0-.348-1.782,13.328,13.328,0,0,0,1.328,1.805,7.572,7.572,0,0,1-.777.512.567.567,0,0,1-.066.039m-.625-2.586a10.284,10.284,0,0,1-2.172-2.941,5.962,5.962,0,0,1-.59-2.528,5.726,5.726,0,0,1,.883-3l.129-.2c-.063.445-.1.887-.121,1.328a3.394,3.394,0,0,0-.434,1.7,5.322,5.322,0,0,0,.438,2,9.659,9.659,0,0,0,.9,1.653,13.912,13.912,0,0,0,.965,1.988" transform="translate(10840.5 14233.5)" fill="#519e28"/>
    <path id="Path_447" data-name="Path 447" d="M123.656,132.406a4.339,4.339,0,0,0-.277-2.84c-4.516-4.414-2.582-8.007-1.535-9.359-.031.168-.059.336-.082.5l-.129.2a5.726,5.726,0,0,0-.883,3,5.962,5.962,0,0,0,.59,2.528,10.284,10.284,0,0,0,2.172,2.941c.047.074.09.152.14.23a4.632,4.632,0,0,1,.348,1.782,3.268,3.268,0,0,1-.012.336c-.019-.039-.043-.078-.066-.118a5.115,5.115,0,0,0-.266.8m.6-.25c-.043-.062-.082-.129-.121-.2a.567.567,0,0,0,.066-.039,7.572,7.572,0,0,0,.777-.512,2.049,2.049,0,0,0,.153.172,8.286,8.286,0,0,1-.875.574m-1.711-4.769a9.659,9.659,0,0,1-.9-1.653,5.322,5.322,0,0,1-.438-2,3.394,3.394,0,0,1,.434-1.7c-.008.188-.012.379-.008.566a4.691,4.691,0,0,0,.558,3.754c.106.348.223.692.356,1.028" transform="translate(10840.5 14233.5)" fill="#3d1211"/>
    <path id="Path_448" data-name="Path 448" d="M147.543,134.445l.172.118-.168-.122,0,0,.172.118-.168-.122a2.985,2.985,0,0,1-.965.754,7.207,7.207,0,0,1-3.473.739c-.265,0-.543-.012-.836-.028a44.134,44.134,0,0,1-6.293-.836,18.864,18.864,0,0,1-2.625-.75,7.074,7.074,0,0,1-1.851-.984,17.528,17.528,0,0,1-1.981-2.023,3.447,3.447,0,0,0-.957-.731,2.914,2.914,0,0,0-1.347-.285c-.071,0-.145,0-.219,0a.331.331,0,0,0-.312.347.325.325,0,0,0,.343.313c.067,0,.125,0,.188,0a2.313,2.313,0,0,1,1.058.219,2.35,2.35,0,0,1,.582.414c.286.262.567.605.914,1a10.656,10.656,0,0,0,1.321,1.269,7.548,7.548,0,0,0,2.027,1.083,23.029,23.029,0,0,0,4.25,1.074c1.57.265,3.246.445,4.859.554.309.02.6.032.879.032a7.814,7.814,0,0,0,3.864-.86,3.387,3.387,0,0,0,1.117-.922.338.338,0,0,0-.086-.461.334.334,0,0,0-.461.09" transform="translate(10840.5 14233.5)" fill="#f14852"/>
    <path id="Path_449" data-name="Path 449" d="M137.465,139.434a33.851,33.851,0,0,1-10.879-2.008,5.371,5.371,0,0,1-1.426-.785,14.837,14.837,0,0,1-.879-1.293,9.249,9.249,0,0,1-.468-.891,4.543,4.543,0,0,1-.083-.82,4.864,4.864,0,0,1,.11-1c.109-.051.305-.149.543-.285a13.793,13.793,0,0,0,3.375,3.523l-.945-.1c-.168-.085-.336-.171-.5-.265a.266.266,0,0,0-.106-.028.237.237,0,0,0-.2.122.23.23,0,0,0,.094.312,22.986,22.986,0,0,0,10.988,2.7,25.844,25.844,0,0,0,4.3-.363,34.419,34.419,0,0,0,3.519-.445,12.1,12.1,0,0,1-1.113.531,16.7,16.7,0,0,1-6.316,1.1h-.012" transform="translate(10840.5 14233.5)" fill="#8e191d"/>
    <path id="Path_450" data-name="Path 450" d="M137.473,139.664a34.068,34.068,0,0,1-10.969-2.023,6.362,6.362,0,0,1-.891-.418c-.164-.2-.316-.4-.453-.582a5.371,5.371,0,0,0,1.426.785,33.851,33.851,0,0,0,10.879,2.008h.012a16.7,16.7,0,0,0,6.316-1.1,12.1,12.1,0,0,0,1.113-.531c.219-.039.438-.082.657-.125a15.126,15.126,0,0,1-8.09,1.984m-13.66-5.207a6.233,6.233,0,0,1-.309-.82,4.838,4.838,0,0,1,.09-.938.183.183,0,0,0,.047,0,.24.24,0,0,0,.089-.019.968.968,0,0,0,.11-.051,4.864,4.864,0,0,0-.11,1,4.543,4.543,0,0,0,.083.82" transform="translate(10840.5 14233.5)" fill="#300b0d"/>
    <path id="Path_451" data-name="Path 451" d="M129.328,136.855a21.433,21.433,0,0,1-2.515-1.082l.945.1a13.46,13.46,0,0,0,1.57.984" transform="translate(10840.5 14233.5)" fill="#8e191d"/>
    <path id="Path_452" data-name="Path 452" d="M137.082,138.613a22.986,22.986,0,0,1-10.988-2.7A.23.23,0,0,1,126,135.6a.237.237,0,0,1,.2-.122.266.266,0,0,1,.106.028c.168.094.336.18.5.265a21.433,21.433,0,0,0,2.515,1.082,12.751,12.751,0,0,0,6.016,1.52c.14,0,.285,0,.426,0,.648-.023,1.3-.027,1.941-.027.074,0,.144,0,.219,0h.222c.614,0,1.227,0,1.836-.024.465-.011.934-.039,1.4-.074a25.844,25.844,0,0,1-4.3.363" transform="translate(10840.5 14233.5)" fill="#300b0d"/>
    <path id="Path_453" data-name="Path 453" d="M123.641,132.7a.183.183,0,0,1-.047,0,1.847,1.847,0,0,1,.047-.226,6.583,6.583,0,0,0,.617-.317c.039.063.082.129.125.192-.238.136-.434.234-.543.285a.968.968,0,0,1-.11.051.24.24,0,0,1-.089.019m0-.234c0-.024.011-.043.015-.063,0,.02-.011.039-.015.063" transform="translate(10840.5 14233.5)" fill="#300b0d"/>
    <path id="Path_454" data-name="Path 454" d="M123.953,132.063c.016-.118.027-.231.035-.34.051.078.1.16.149.238-.067.039-.129.07-.184.1" transform="translate(10840.5 14233.5)" fill="#401b1c"/>
    <path id="Path_455" data-name="Path 455" d="M123.641,132.473v0c0-.024.011-.043.015-.063a5.115,5.115,0,0,1,.266-.8c.023.04.047.079.066.118-.008.109-.019.222-.035.34.055-.032.117-.063.184-.1.039.066.078.133.121.2a6.583,6.583,0,0,1-.617.317" transform="translate(10840.5 14233.5)" fill="#27090a"/>
    <path id="Path_456" data-name="Path 456" d="M136.262,144.086c-3.246.715-6.578-1.8-10.211-5.984s-2.75-5.434-3.149-6.856a3.969,3.969,0,0,0-5.035-2.254,4.346,4.346,0,0,0-1.582,6.668c2.371,3.328,11.664,13.91,20.313,9.692a3.226,3.226,0,0,0,1.507-2.629,4.406,4.406,0,0,1-1.843,1.363" transform="translate(10840.5 14233.5)" fill="#ed1d24"/>
    <path id="Path_457" data-name="Path 457" d="M136.262,144.086l-.047-.227a4.87,4.87,0,0,1-1.063.118,5.922,5.922,0,0,1-2.113-.418,11.878,11.878,0,0,1-3.312-2.075,32.161,32.161,0,0,1-3.5-3.531,18.463,18.463,0,0,1-1.946-2.6,6.466,6.466,0,0,1-.937-2.446c-.047-.312-.063-.593-.086-.875a4.4,4.4,0,0,0-.137-.843,3.049,3.049,0,0,0-.6-1.133,4.227,4.227,0,0,0-1.551-1.145,4.631,4.631,0,0,0-1.852-.406,3.041,3.041,0,0,0-1.351.285,5.286,5.286,0,0,0-1.75,1.481,4.332,4.332,0,0,0-.942,2.64,4.943,4.943,0,0,0,1.024,2.887,35.221,35.221,0,0,0,6.113,6.426,23.156,23.156,0,0,0,4.773,3.043,12.9,12.9,0,0,0,5.391,1.3,9.759,9.759,0,0,0,4.324-1,2.133,2.133,0,0,0,.563-.43,4.5,4.5,0,0,0,.75-1.02,2.656,2.656,0,0,0,.343-1.171,1.142,1.142,0,0,0-.027-.262.226.226,0,0,0-.4-.1h0a5.587,5.587,0,0,1-.594.61,4.284,4.284,0,0,1-.547.421,1.835,1.835,0,0,1-.57.25l.047.227.051.223a2.4,2.4,0,0,0,.738-.325,5.5,5.5,0,0,0,.867-.718,5.271,5.271,0,0,0,.363-.4l-.176-.144-.222.047a1.037,1.037,0,0,1,.015.168,1.7,1.7,0,0,1-.136.617,3.721,3.721,0,0,1-.582.984,3.22,3.22,0,0,1-.36.379,1.457,1.457,0,0,1-.32.227,9.313,9.313,0,0,1-4.125.957,12.429,12.429,0,0,1-5.2-1.254,25.619,25.619,0,0,1-6.684-4.754,34.522,34.522,0,0,1-4.023-4.567,4.486,4.486,0,0,1-.938-2.621,3.891,3.891,0,0,1,.848-2.363,4.857,4.857,0,0,1,1.59-1.348,2.6,2.6,0,0,1,1.148-.238,4.287,4.287,0,0,1,2.184.641,3.554,3.554,0,0,1,.867.746,2.646,2.646,0,0,1,.516.961,5.655,5.655,0,0,1,.14,1.043,6.329,6.329,0,0,0,.531,2.215,15.258,15.258,0,0,0,2.524,3.691,27.581,27.581,0,0,0,4.711,4.476,10.674,10.674,0,0,0,2.285,1.258,6.4,6.4,0,0,0,2.277.446,5.332,5.332,0,0,0,1.161-.125l-.051-.223" transform="translate(10840.5 14233.5)" fill="#4b1615"/>
    <path id="Path_458" data-name="Path 458" d="M130.617,145.109A24.025,24.025,0,0,1,117.1,133.891l13.515,11.218" transform="translate(10840.5 14233.5)" fill="#ed1d24"/>
    <path id="Path_459" data-name="Path 459" d="M130.68,144.887h0a22.241,22.241,0,0,1-5.106-2.391,22.794,22.794,0,0,1-8.265-8.715.23.23,0,0,0-.407.215,23.347,23.347,0,0,0,8.563,8.973,22.466,22.466,0,0,0,5.1,2.359.226.226,0,0,0,.281-.16.232.232,0,0,0-.16-.281" transform="translate(10840.5 14233.5)" fill="#4b1615"/>
    <path id="Path_460" data-name="Path 460" d="M120.18,129.418a3.914,3.914,0,0,0-1.063-2.277s-1.558-7.614,4-7.336c0,0,1.406.871,1.856.406s.179-2.965-.914-2.941c0,0-1.188.613-1.231,1.117,0,0-6.32.929-4.66,8.82a4.372,4.372,0,0,1-1.4,2.566,5.941,5.941,0,0,0,3.407-.355" transform="translate(10840.5 14233.5)" fill="#6ac632"/>
    <path id="Path_461" data-name="Path 461" d="M120.18,129.418l.226-.008a3.055,3.055,0,0,0-.156-.777,4.546,4.546,0,0,0-.961-1.645l-.172.153.227-.047,0-.008a12.374,12.374,0,0,1-.195-2.176,6.855,6.855,0,0,1,.687-3.254,3.083,3.083,0,0,1,1.106-1.168,3.641,3.641,0,0,1,1.89-.461c.09,0,.184,0,.281.008l.012-.23L123,120a4.759,4.759,0,0,0,.535.285,4.194,4.194,0,0,0,.5.195,1.887,1.887,0,0,0,.547.1.856.856,0,0,0,.293-.047.647.647,0,0,0,.262-.164.629.629,0,0,0,.132-.2,1.6,1.6,0,0,0,.106-.379,2.736,2.736,0,0,0,.031-.445,3.736,3.736,0,0,0-.289-1.461,1.69,1.69,0,0,0-.4-.578.907.907,0,0,0-.289-.188.885.885,0,0,0-.352-.07h-.023a.221.221,0,0,0-.1.023,6.241,6.241,0,0,0-.625.387,2.887,2.887,0,0,0-.457.391,1.307,1.307,0,0,0-.176.238.706.706,0,0,0-.094.285l.227.02-.031-.227a6.454,6.454,0,0,0-2.571,1.106,5.827,5.827,0,0,0-1.765,2,7.175,7.175,0,0,0-.8,3.472,12.324,12.324,0,0,0,.281,2.524l.227-.051-.231-.019.071,0-.071,0,.071,0-.071,0a3.4,3.4,0,0,1-.218.812,4.272,4.272,0,0,1-1.106,1.6.235.235,0,0,0-.066.234.229.229,0,0,0,.179.16,8.047,8.047,0,0,0,1.352.109,6,6,0,0,0,1.129-.1,3.226,3.226,0,0,0,1.09-.395.224.224,0,0,0,.1-.2l-.226.008-.121-.195a2.8,2.8,0,0,1-.934.336,5.647,5.647,0,0,1-1.043.086c-.355,0-.676-.024-.906-.047-.113-.016-.207-.028-.27-.035a.306.306,0,0,0-.07-.012l-.02,0h0l-.04.226.153.168a4.667,4.667,0,0,0,1.23-1.8,3.636,3.636,0,0,0,.242-.911.553.553,0,0,0,0-.07,11.657,11.657,0,0,1-.274-2.426,6.728,6.728,0,0,1,.746-3.254,5.575,5.575,0,0,1,2.5-2.363,6.315,6.315,0,0,1,1.067-.406c.136-.039.246-.063.32-.078.035-.008.062-.012.082-.016l.019,0h.008a.232.232,0,0,0,.2-.207.21.21,0,0,1,.035-.1,1.2,1.2,0,0,1,.242-.278,4.238,4.238,0,0,1,.539-.39c.086-.051.156-.09.211-.121l.058-.032.016-.007,0,0-.1-.2.007.23h.008a.435.435,0,0,1,.176.035.705.705,0,0,1,.277.235,1.993,1.993,0,0,1,.313.71,3.52,3.52,0,0,1,.109.86,2.023,2.023,0,0,1-.047.476.762.762,0,0,1-.047.157.47.47,0,0,1-.046.078.191.191,0,0,1-.083.047.5.5,0,0,1-.144.019,1.444,1.444,0,0,1-.41-.074,4.454,4.454,0,0,1-.645-.27c-.086-.046-.16-.085-.211-.117a.65.65,0,0,1-.058-.035l-.016-.008,0,0a.225.225,0,0,0-.109-.031c-.106-.008-.207-.008-.305-.008a4.076,4.076,0,0,0-2.125.528,3.353,3.353,0,0,0-1.023.949,5.061,5.061,0,0,0-.8,1.887,9.449,9.449,0,0,0-.195,1.976,12.765,12.765,0,0,0,.207,2.278.2.2,0,0,0,.054.1,4.083,4.083,0,0,1,.864,1.48,2.8,2.8,0,0,1,.117.485c.011.055.015.1.019.129v.039l.231-.008-.121-.195.121.195" transform="translate(10840.5 14233.5)" fill="#4b1615"/>
    <path id="Path_462" data-name="Path 462" d="M118.082,129.645c-.223,0-.434-.008-.613-.024,0-.094.008-.187.011-.281a4.576,4.576,0,0,0,.676-1.2,4.49,4.49,0,0,0,.219-.75,13.939,13.939,0,0,0,.1,2.246c-.133.008-.262.008-.391.008m.305-2.52a11.793,11.793,0,0,1-.266-2.391,6.728,6.728,0,0,1,.746-3.254,5.575,5.575,0,0,1,2.5-2.363c.129-.062.254-.117.371-.168-.3.336-.578.68-.836,1.035-.07.036-.136.075-.2.114a3.353,3.353,0,0,0-1.023.949,5.061,5.061,0,0,0-.8,1.887,9.449,9.449,0,0,0-.195,1.976v.028a13.664,13.664,0,0,0-.3,2.187" transform="translate(10840.5 14233.5)" fill="#519e28"/>
    <path id="Path_463" data-name="Path 463" d="M118.082,129.875c-.227,0-.437-.012-.621-.023,0-.079,0-.153.008-.231.179.016.39.024.613.024.129,0,.258,0,.391-.008.011.074.023.148.031.226-.145.008-.285.012-.422.012m-1.309-.1a.131.131,0,0,1,.02-.023.131.131,0,0,0-.02.023m.032-.035a4.371,4.371,0,0,0,1.367-2.531c-1.3-6.184,2.3-8.094,3.918-8.629-.117.121-.235.246-.348.371-.117.051-.242.106-.371.168a5.575,5.575,0,0,0-2.5,2.363,6.728,6.728,0,0,0-.746,3.254,11.793,11.793,0,0,0,.266,2.391c0,.09-.008.176-.012.266a4.49,4.49,0,0,1-.219.75,4.576,4.576,0,0,1-.676,1.2c0-.043,0-.086.008-.133a5.666,5.666,0,0,0-.683.531m1.883-4.8v-.028a9.449,9.449,0,0,1,.195-1.976,5.061,5.061,0,0,1,.8-1.887,3.353,3.353,0,0,1,1.023-.949c.067-.039.133-.078.2-.114-.109.157-.218.309-.324.469a4.7,4.7,0,0,0-1.617,3.43q-.159.521-.277,1.055" transform="translate(10840.5 14233.5)" fill="#3d1211"/>
    <path id="Path_464" data-name="Path 464" d="M135.539,144.742l.047.117-.047-.117.047.117-.047-.117a2.521,2.521,0,0,1-.812.11,5.3,5.3,0,0,1-1.758-.336,9.726,9.726,0,0,1-2.621-1.5,44.462,44.462,0,0,1-4.766-4.2,18.666,18.666,0,0,1-1.762-2.09,6.887,6.887,0,0,1-.992-1.848,19.675,19.675,0,0,1-.539-2.863,3.193,3.193,0,0,0-.437-1.172,3.289,3.289,0,0,0-1.079-1,.334.334,0,0,0-.457.113.33.33,0,0,0,.114.453,2.573,2.573,0,0,1,.867.793,2.3,2.3,0,0,1,.285.676,13.119,13.119,0,0,1,.219,1.359,10.746,10.746,0,0,0,.394,1.844,7.649,7.649,0,0,0,1.086,2.027,23,23,0,0,0,2.934,3.266c1.16,1.1,2.449,2.18,3.73,3.172a10.338,10.338,0,0,0,2.8,1.594,5.9,5.9,0,0,0,1.981.375,3.071,3.071,0,0,0,1.054-.153.331.331,0,1,0-.242-.617" transform="translate(10840.5 14233.5)" fill="#f14852"/>
    <path id="Path_465" data-name="Path 465" d="M131.48,146.063a13.168,13.168,0,0,1-4.3-1.215,25.619,25.619,0,0,1-6.684-4.754,34.522,34.522,0,0,1-4.023-4.567,4.486,4.486,0,0,1-.938-2.621,3.891,3.891,0,0,1,.848-2.363,4.673,4.673,0,0,1,.469-.527c.125.019.34.047.609.066a13.8,13.8,0,0,0,.852,4.809l-.735-.61c-.09-.164-.179-.328-.269-.5a.23.23,0,0,0-.2-.121.208.208,0,0,0-.106.028.228.228,0,0,0-.1.308,23.347,23.347,0,0,0,8.563,8.973,26.2,26.2,0,0,0,2.852,1.5,34.82,34.82,0,0,0,3.167,1.59" transform="translate(10840.5 14233.5)" fill="#8e191d"/>
    <path id="Path_466" data-name="Path 466" d="M132.094,146.328c-7.149-.2-13.848-7.914-15.809-10.668a4.166,4.166,0,0,1,.324-5.73.214.214,0,0,0,.121.066l.118.02a4.673,4.673,0,0,0-.469.527,3.891,3.891,0,0,0-.848,2.363,4.486,4.486,0,0,0,.938,2.621,34.522,34.522,0,0,0,4.023,4.567,25.619,25.619,0,0,0,6.684,4.754,13.168,13.168,0,0,0,4.3,1.215c.2.089.411.175.614.265" transform="translate(10840.5 14233.5)" fill="#300b0d"/>
    <path id="Path_467" data-name="Path 467" d="M119.066,136.582a22.1,22.1,0,0,1-1.492-2.3l.735.61a13.092,13.092,0,0,0,.757,1.691" transform="translate(10840.5 14233.5)" fill="#8e191d"/>
    <path id="Path_468" data-name="Path 468" d="M128.313,144.473a26.2,26.2,0,0,1-2.852-1.5A23.347,23.347,0,0,1,116.9,134a.228.228,0,0,1,.1-.308.208.208,0,0,1,.106-.028.23.23,0,0,1,.2.121c.09.172.179.336.269.5a22.1,22.1,0,0,0,1.492,2.3,12.765,12.765,0,0,0,4.512,4.856c1.195.742,2.336,1.566,3.527,2.316.395.246.8.488,1.208.719" transform="translate(10840.5 14233.5)" fill="#300b0d"/>
    <path id="Path_469" data-name="Path 469" d="M117.457,130.082c-.269-.019-.484-.047-.609-.066l-.118-.02a.214.214,0,0,1-.121-.066,2.227,2.227,0,0,1,.164-.157c.008,0,.286.047.688.079,0,.078,0,.152,0,.23m-.664-.332.012-.012-.012.012" transform="translate(10840.5 14233.5)" fill="#300b0d"/>
    <path id="Path_470" data-name="Path 470" d="M117.469,129.621c-.074,0-.145-.012-.207-.016.078-.089.152-.175.218-.265,0,.094-.007.187-.011.281" transform="translate(10840.5 14233.5)" fill="#401b1c"/>
    <path id="Path_471" data-name="Path 471" d="M117.461,129.852c-.4-.032-.68-.079-.688-.079a.131.131,0,0,1,.02-.023l.012-.012a5.666,5.666,0,0,1,.683-.531c0,.047,0,.09-.008.133-.066.09-.14.176-.218.265.062,0,.133.012.207.016,0,.078,0,.152-.008.231" transform="translate(10840.5 14233.5)" fill="#27090a"/>
    <g id="Group_609" data-name="Group 609" transform="translate(10840.5 14233.5)" clip-path="url(#clip-path-8)">
      <path id="Path_472" data-name="Path 472" d="M132.285,95.547a1.147,1.147,0,0,0-.844.371,8.621,8.621,0,0,0-1.257,1.918,4.329,4.329,0,0,0,.035,4.352,4.572,4.572,0,0,1,.535,3.664,4.4,4.4,0,0,1-2.7,2.714c-2.93,1.254-3,3.469-3.043,4.934-.043,1.332-.1,1.895-1.1,2.363a1.324,1.324,0,0,1-.562.129,1.191,1.191,0,0,1-.122-.008c-.019,0-.039,0-.058,0l-.02,0h-.007l-.055-.012h0l-.016,0-.062-.012-.016,0a1.632,1.632,0,0,1-.324-.125l-.02-.007-.062-.036-.012,0-.011-.007c-.02-.012-.047-.024-.071-.039l-.012-.008-.007,0-.071-.047,0,0-.011-.008a.575.575,0,0,1-.074-.051l-.016-.007a3.972,3.972,0,0,1-.336-.3l-.012-.012c-.023-.023-.043-.047-.066-.07l-.02-.02c-.019-.023-.039-.047-.062-.07l-.008-.008-.012-.016c-.023-.027-.043-.054-.062-.078l-.008-.007L121.7,115l0,0c-.023-.031-.043-.055-.062-.082l-.008-.016-.012-.011c-.019-.028-.039-.055-.058-.082l-.016-.024c-.066-.094-.129-.2-.191-.312l-.012-.024c-.016-.027-.031-.054-.047-.086l-.012-.027-.011-.02c-.012-.023-.024-.05-.039-.078a.29.29,0,0,0-.024-.047c-.012-.035-.027-.062-.039-.089s-.016-.036-.023-.055-.02-.055-.032-.082-.015-.039-.023-.059-.02-.058-.031-.086l-.012-.035-.012-.031-.008-.02a.516.516,0,0,0-.015-.054c0-.016-.012-.035-.016-.051l-.008-.027c-.011-.039-.023-.079-.035-.118s-.015-.066-.023-.1l-.008-.032-.008-.035a.724.724,0,0,0-.019-.086c0-.019,0-.035-.008-.054l0-.012c0-.031-.012-.063-.016-.09s-.008-.043-.011-.07-.008-.059-.012-.086a.342.342,0,0,0-.008-.067.728.728,0,0,0-.008-.093v-.016a.187.187,0,0,1,0-.047c0-.031,0-.066-.007-.1v-.063c0-.043,0-.082,0-.121v-.043c0-.051,0-.1,0-.148v-.016l0-.016c0-.043,0-.086.008-.132l0-.051c0-.035.008-.074.012-.11,0-.015,0-.031.008-.047v-.011c.007-.035.011-.071.019-.1a.219.219,0,0,1,.008-.054,1.035,1.035,0,0,0,.02-.106l.015-.062c.008-.028.016-.063.024-.1l.007-.031.008-.028c.012-.039.024-.078.035-.117,0-.012.008-.027.012-.039l0,0a2.561,2.561,0,0,1,.113-.308.371.371,0,0,1,.02-.04c.015-.035.031-.078.051-.117l.015-.031.008-.012c.02-.043.039-.078.059-.113.007-.012.015-.031.027-.051l.059-.1,0-.008c.008-.016.02-.031.028-.047.023-.035.043-.066.066-.1l.008-.015c.008-.016.02-.028.027-.043.024-.035.051-.067.075-.1l.035-.047c.031-.043.062-.086.1-.129l.024-.027c.035-.043.078-.09.117-.137l.027-.031c.036-.039.075-.082.118-.125L122,109.6l.027-.024c.036-.035.067-.07.1-.1a.465.465,0,0,1,.051-.047l0,0,.105-.094c.024-.019.043-.039.067-.055s.07-.058.105-.089.047-.036.07-.055c.039-.028.078-.055.118-.086l.015-.012c.02-.012.035-.027.055-.039.047-.031.09-.062.137-.094l.039-.027.027-.016c.074-.05.145-.093.211-.132a1.146,1.146,0,0,0-.59-2.129,1.042,1.042,0,0,0-.418.082A12.337,12.337,0,0,0,119,108.605a7.042,7.042,0,0,0-2.789,6.293,11.938,11.938,0,0,0,2.09,4.957c-.067.083-.121.157-.176.231l-.012.016-.007.015c-.059.082-.118.168-.18.266a.66.66,0,0,0-.043.07c-.063.1-.117.192-.172.285a.237.237,0,0,1-.016.032c-.05.089-.1.179-.144.277l0,.008-.012.019-.023.051c-.051.105-.1.211-.141.316l-.019.047,0,.012,0,.008c-.039.094-.078.195-.113.293l-.008.019a.3.3,0,0,1-.02.055c-.035.109-.074.227-.109.348l-.008.031a1.162,1.162,0,0,0-.234-.024h-.008a1.143,1.143,0,0,0-1.141,1.059v.012c-.015.2-.027.418-.039.633v.007c-.012.223-.019.457-.023.692l0,.027c0,.125,0,.242,0,.363v.426c0,.125,0,.25.008.375v.059c0,.1.008.219.011.328v.039l0,.039c0,.121.012.246.02.371,0,.024,0,.043,0,.063v.019c.008.11.015.219.023.328l0,.035,0,.055c.012.121.023.25.035.379l.008.051,0,.039c.012.113.023.223.039.332l0,.031,0,.063c.019.125.035.254.054.386l.012.055,0,.035v.012c.02.109.039.219.059.324l0,.031.007.059,0,.02-.105.1-.02.02c-.148.152-.3.316-.433.484l0,0c-.012.015-.028.035-.039.051a1.1,1.1,0,0,0-.082.109l-.012.012-.016.023-.046.059,0,.008c-.024.031-.047.066-.071.1l-.011.016,0,.008c-.024.031-.043.062-.063.093s-.047.075-.066.106l-.012.015c-.027.043-.051.082-.074.122s-.043.078-.067.121-.046.086-.07.129-.039.078-.062.121-.043.089-.063.136-.039.082-.055.125-.039.094-.058.145l0,.008-.047.117c-.016.055-.035.105-.051.16l-.008.02c-.011.035-.023.07-.035.1-.015.063-.031.121-.047.18l0,.015c-.008.032-.02.067-.028.1-.015.078-.031.152-.043.215v.012a.456.456,0,0,0-.015.082c-.02.1-.032.207-.043.312v.016l0,.019c-.008.094-.016.192-.02.281v.333c0,.035,0,.066.008.1v.024c0,.07.008.14.016.211,0,.039.007.074.011.113l0,.023c.008.071.02.137.031.207l.024.141c.016.066.031.133.047.2v0c.012.047.023.094.035.141.019.07.039.136.059.2.015.047.031.1.046.148.024.067.047.137.075.2a1.1,1.1,0,0,0,.058.145c.028.074.063.148.09.211l.012.019c.015.039.035.082.051.121.035.071.074.141.113.211v.008l.019.031c.016.032.032.067.051.1.047.082.1.16.141.238l.012.016a.99.99,0,0,1,.054.094c.082.125.156.238.238.347l.114.16c.011.016.027.039.043.059s.051.066.078.1l.051.067.078.105.019.028.039.05.09.114,0,.008.047.062c.047.059.094.121.145.184l.027.035.012.015c.039.047.074.094.113.145l.015.019.055.067c.031.039.067.078.1.121l.047.055.023.031.1.121.031.039.051.059.09.109.011.016.078.093c.059.067.118.137.18.211l.082.094.008.008c.035.043.07.082.109.125s.059.07.094.1.07.082.106.121l.1.118.113.121.1.113.156.172.063.07c.07.074.14.149.211.223l.089.094.047.054a1.173,1.173,0,0,1,.1.1l.121.121c.039.043.078.082.117.125s.086.082.129.129.078.078.117.121l.129.125.129.129c.074.074.153.148.227.223l.047.043.089.089c.04.036.075.071.11.106l.031.027.012.012c.039.035.078.074.117.109s.094.09.145.137l.125.113.152.141c.031.031.066.062.105.1l.02.015.023.024.129.117.082.07.047.039c.1.086.192.172.293.254l.039.035.086.078c.043.036.082.071.125.106l.039.031.133.109c.055.047.109.094.168.141l.129.106.176.14.117.094.012.012c.058.043.117.089.179.136l.059.051.039.027c.121.094.242.188.367.278l.039.031.094.07c.058.043.121.086.183.133l.016.012.121.086c.063.047.125.09.188.133l.136.1c.063.043.129.086.192.133.035.02.07.043.1.067l.032.023c.226.152.464.305.7.453l.035.024.1.066c.063.039.133.078.2.117.046.031.1.059.144.086.066.043.137.082.2.121.047.028.1.055.145.082l.011,0c.067.039.133.074.2.113l.1.055.031.016c.161.086.321.172.473.246l.02.012a.246.246,0,0,1,.05.027c.059.027.118.055.176.086l.043.019.024.012.121.059c.07.035.14.066.215.1l.152.071c.07.031.144.066.215.1.051.02.1.043.156.063l.016.008.2.086.093.035.04.015c.156.063.308.117.457.172l.039.016c.027.012.058.019.089.031.063.023.125.043.188.063l.035.011.016.008.144.047.223.07.164.047c.074.024.148.043.223.063.05.015.1.027.148.039l.02.008.027.007.2.047a1.04,1.04,0,0,0,.106.028l.043.007c.144.036.293.067.437.094l.043.008c.043.008.086.019.125.023.067.016.137.024.2.036l.024,0c.058.012.117.02.175.028.075.011.149.023.223.031l.184.023.222.024.153.012.031,0,.039,0,.188.012c.05,0,.1.008.152.008l.051,0c.16,0,.324.008.484.008a10.72,10.72,0,0,0,4.723-1.09c1.047-.512,2.429-2.41,2.129-3.891a1.148,1.148,0,0,0-.848-.883,1.113,1.113,0,0,0-.274-.031,1.138,1.138,0,0,0-.882.418,3.343,3.343,0,0,1-1.2.969,4.118,4.118,0,0,1-.868.1c-1.742,0-3.714-1.1-6.1-3.426l.144.039c.051.012.1.023.156.039l.149.039h.012l.148.039c.043.008.086.02.133.031l.027.008.2.047.257.059.133.031.031,0,.164.039.141.031.031,0,.164.035c.059.012.118.027.176.039s.113.02.172.031l.031.008.145.028c.055.011.109.023.16.031l.02,0,.3.058.035,0c.055.012.11.02.165.031s.1.016.156.028l.031,0c.055.007.113.019.172.027s.125.023.187.031.122.02.18.028.129.019.195.031l.168.023.008,0,.039,0,.164.024c.039,0,.082.011.125.015l.059.008.348.047.035,0,.156.015c.055.008.109.016.168.02l.035,0,.027,0c.051,0,.1.011.153.015.07.008.14.016.211.02.054.008.117.012.176.019s.14.012.21.016c.051,0,.1.012.153.012l.027,0,.031,0,.184.011c.043,0,.09.008.133.008l.058,0c.125.012.25.016.379.023l.055,0c.043,0,.086,0,.129,0l.219.012c.058,0,.117,0,.179,0s.145,0,.219,0,.117,0,.176,0h.043c.058,0,.121,0,.183,0h.4c.1,0,.207,0,.308-.008s.184,0,.274-.008h.047c.047,0,.093,0,.14,0l.2-.012h.019l.184-.011.222-.012c.059,0,.121-.012.184-.016s.144-.011.219-.019c.047,0,.1-.008.144-.012l.039,0c.137-.012.27-.027.406-.043l.055-.008a1.185,1.185,0,0,0,.125-.015l.184-.024.039-.008h.027l.156-.023.219-.035c.059-.012.121-.02.18-.031.074-.012.144-.024.219-.039l.179-.036.024,0c.066-.012.129-.024.2-.04.043-.007.086-.019.125-.027l.051-.012c.133-.027.273-.062.406-.093l.047-.012c.043-.012.082-.02.125-.031l.187-.051.032-.008c.054-.016.113-.031.175-.051s.141-.039.211-.062.118-.035.176-.055.141-.047.215-.07c.051-.016.1-.035.156-.055l.035-.012c.067-.023.129-.043.192-.066l.117-.047.043-.016c.133-.05.266-.1.4-.16l.039-.015c.039-.016.082-.035.125-.051l.175-.082.028-.012.023-.012c.047-.019.094-.043.141-.062.07-.035.137-.066.2-.1l.164-.082.2-.1c.043-.024.086-.047.125-.07l.031-.016.043-.023c.051-.032.106-.063.161-.094.027-.016.054-.035.086-.051l.035-.023a10.744,10.744,0,0,0,3.777-3.836c.586-1,.68-3.356-.391-4.414a1.128,1.128,0,0,0-.8-.332,1.021,1.021,0,0,0-.242.027,6.743,6.743,0,0,0-.469-2.754c-.688-1.805-.844-3.129-.461-3.828.16-.3.531-.723,1.84-.992a1.148,1.148,0,0,0,.465-2.032,5.376,5.376,0,0,0-3.141-.921,7.357,7.357,0,0,0-2.848.6,3.105,3.105,0,0,0-1.812,2.715,15.3,15.3,0,0,0,.07,3.121,17.393,17.393,0,0,1,.106,2.148c-.032.684-.172.887-.215.934a.59.59,0,0,1-.364.086h-.062a3.837,3.837,0,0,1-3.551-2.188c-.445-1.257.215-2.742,1.859-4.183a23.315,23.315,0,0,1,4.407-2.977,7.172,7.172,0,0,0,2.6-1.918,3.4,3.4,0,0,0-.062-3.5.547.547,0,0,0-.031-.058,3.448,3.448,0,0,1-.5-2.114c.043-.089.234-.132.343-.152a1.146,1.146,0,0,0,.012-2.258,10.228,10.228,0,0,0-1.594-.121c-3.054,0-5.05,1.336-5.468,3.668-.27,1.488-1.414,6.344-4.895,6.344a4.48,4.48,0,0,1-.894-.094,2.029,2.029,0,0,1-1.852-1.855,4.677,4.677,0,0,1,2.391-4.328c2.168-.981,3.968-3.692,4.379-6.59a8.1,8.1,0,0,0-2.84-7.508,1.173,1.173,0,0,0-.184-.125,11,11,0,0,1-1.258-.863c-.82-.66-1-1.051-1.031-1.16A1.149,1.149,0,0,0,133,95.8,1.131,1.131,0,0,0,132.285,95.547Zm-10.379,30.211c.805-.707.469-1.77-.308-3.055a3.176,3.176,0,0,0-.1.371v.008a3.688,3.688,0,0,0-.027,1.191l0,.012a4.61,4.61,0,0,0,.086.473h0c.016.074.036.148.059.222l.008.028c.043.148.09.293.144.441a.153.153,0,0,1,.016.035c.023.063.047.125.074.188l.012.031c.008.02.019.039.027.055m-2.539.965h.031c.055,0,.114,0,.168,0l.032,0c.062,0,.129-.012.195-.02a.2.2,0,0,1,.051-.007c.062-.012.129-.024.2-.04.012,0,.023,0,.035-.007.063-.016.125-.032.192-.051l.039-.012a2.225,2.225,0,0,0,.214-.07c.02-.008.04-.012.055-.02.074-.027.149-.058.227-.093l.027-.008c.063-.032.129-.063.195-.094-.023-.055-.043-.109-.066-.164a.237.237,0,0,0-.02-.047c-.027-.07-.05-.141-.074-.207a.257.257,0,0,1-.015-.051c-.02-.054-.036-.1-.055-.156a.459.459,0,0,0-.02-.07c-.015-.047-.027-.094-.039-.141-.008-.023-.011-.043-.019-.062-.016-.063-.031-.125-.047-.188v-.016c-.016-.066-.031-.128-.043-.195,0-.019-.008-.039-.012-.055-.008-.05-.015-.1-.023-.144a.3.3,0,0,1-.008-.063c-.008-.046-.016-.093-.02-.14,0-.02,0-.035-.007-.051-.008-.063-.012-.125-.016-.188l0-.027c0-.055-.008-.105-.008-.16a.274.274,0,0,1,0-.055c0-.047,0-.09,0-.133v-.234l.012-.176v-.043l.012-.129c0-.019,0-.039,0-.058,0-.039.012-.078.015-.121,0-.016,0-.031,0-.047.008-.059.016-.113.028-.164v0c.007-.055.015-.106.027-.16,0-.016.008-.031.012-.051a.985.985,0,0,1,.023-.1c0-.02.008-.04.012-.055.008-.039.016-.074.027-.113,0-.012.008-.028.012-.043.012-.051.023-.1.039-.145,0-.016.008-.031.012-.043.011-.035.019-.07.031-.105.008-.016.012-.036.02-.055a.639.639,0,0,1,.031-.09.455.455,0,0,1,.019-.055c.012-.031.024-.062.035-.093a.128.128,0,0,1,.016-.043c.016-.043.031-.086.047-.125h0c-.223-.325-.457-.66-.7-1a.41.41,0,0,0-.051.051l0,0a3.407,3.407,0,0,0-.449.559l0,0a3.343,3.343,0,0,0-.231.414l-.007.012a4.722,4.722,0,0,0-.262.66l-.008.023c-.047.149-.09.3-.125.453l0,.032c-.019.07-.031.14-.047.211l0,.019c-.015.078-.027.156-.043.235v0c-.011.075-.019.153-.031.227l0,.027c-.008.078-.019.153-.027.231a12.307,12.307,0,0,0,.078,2.812c.035,0,.066.012.1.016a.161.161,0,0,1,.043,0c.058,0,.117.008.175.008h.008m12.922-30.032c-1.082,1.527,2.688,3.645,2.688,3.645,4.73,4.035,1.945,10.73-1.266,12.184s-4.8,7.46-.289,8.351a5.62,5.62,0,0,0,1.113.113c3.727,0,5.438-4.058,6.02-7.285.418-2.328,2.785-2.726,4.343-2.726a8.813,8.813,0,0,1,1.4.105c-2.582.434-.652,3.949-.652,3.949,1.675,3.508-1.9,2.86-6.661,7.036s-1.57,8.238,2.4,8.378h.1c3.8,0-.316-7.847,2.653-9.089a6.168,6.168,0,0,1,2.41-.52,4.24,4.24,0,0,1,2.445.688c-2.6.535-3.867,2.007-2.219,6.347a5.127,5.127,0,0,1-2.32,6.438c-.5.363-1,.7-1.508,1a6.607,6.607,0,0,0,4.836-1.813,4.432,4.432,0,0,0,.774-2.16,3.222,3.222,0,0,1,.207,3.027,9.551,9.551,0,0,1-3.379,3.43.8.8,0,0,1-.11.066c-.058.036-.121.071-.183.106s-.094.051-.141.078-.121.063-.183.094-.094.051-.145.074-.121.063-.183.09l-.149.07c-.062.028-.125.059-.187.086s-.1.043-.149.063c-.121.05-.242.1-.363.144l-.145.059c-.066.023-.132.043-.2.066-.051.02-.1.039-.156.055s-.129.043-.195.066-.106.032-.161.047a1.8,1.8,0,0,1-.2.059l-.16.047c-.066.019-.133.039-.2.054-.051.016-.106.028-.156.039-.125.032-.25.063-.379.09l-.164.035c-.067.016-.137.028-.2.043s-.114.02-.168.032l-.207.035c-.055.011-.114.019-.168.031-.071.008-.137.02-.207.031l-.172.024c-.067.011-.137.019-.207.027l-.172.023c-.125.012-.254.028-.379.04-.059.007-.117.011-.176.015s-.137.012-.207.02l-.176.011c-.07,0-.136.012-.207.016s-.117,0-.176.008l-.207.012c-.062,0-.121,0-.179,0-.086,0-.172.008-.262.008s-.2,0-.293.008h-.387c-.07,0-.136,0-.207,0s-.117,0-.175,0-.141,0-.208,0-.117,0-.175-.007-.137,0-.207-.008-.118,0-.176-.008c-.121-.008-.242-.012-.363-.02l-.188-.011c-.066,0-.133-.012-.2-.016s-.117-.012-.176-.016-.133-.011-.2-.015-.117-.012-.176-.02-.133-.011-.2-.019-.117-.012-.172-.016l-.2-.023-.184-.024c-.113-.011-.222-.027-.336-.039-.058-.012-.121-.019-.179-.027s-.129-.016-.192-.028l-.172-.023-.187-.027c-.059-.012-.113-.02-.168-.028s-.125-.019-.188-.031-.113-.019-.171-.027-.118-.02-.176-.031l-.2-.036c-.1-.019-.195-.035-.289-.054-.058-.012-.117-.024-.175-.032s-.114-.023-.172-.035l-.164-.035-.172-.035c-.051-.012-.106-.023-.16-.031s-.11-.028-.164-.039l-.164-.036-.157-.035-.25-.058c-.062-.016-.125-.032-.187-.043s-.106-.028-.16-.039-.1-.028-.153-.039l-.144-.036c-.051-.015-.1-.027-.149-.039s-.1-.027-.148-.039-.094-.023-.141-.039-.1-.027-.156-.039l-.121-.035c-.09-.023-.172-.047-.258-.07l-.117-.035c-.047-.016-.1-.028-.145-.043l-.121-.036-.136-.042c-.04-.012-.075-.024-.114-.032s-.093-.031-.136-.043l-.106-.035-.152-.047c-.028-.008-.055-.019-.082-.027-.071-.024-.141-.043-.207-.066a.666.666,0,0,0-.078-.028c-.047-.015-.09-.031-.133-.043s-.055-.019-.082-.031a1.074,1.074,0,0,1-.121-.043l-.075-.023-.125-.047c-.019-.008-.039-.012-.058-.02-.059-.023-.117-.043-.172-.062-.113-.047-.227-.09-.332-.137-.035-.016-.067-.031-.1-.051-.07-.031-.14-.062-.207-.1-.039-.019-.074-.039-.113-.058-.059-.035-.117-.067-.176-.1a.984.984,0,0,0-.109-.066c-.051-.035-.106-.067-.152-.1l-.106-.07-.141-.106c-.023-.015-.046-.035-.074-.054.305.4.653.832,1.059,1.3,3.219,3.707,6.2,6.1,9.1,6.1a5.086,5.086,0,0,0,1.11-.121,4.406,4.406,0,0,0,1.843-1.363,3.226,3.226,0,0,1-1.507,2.629,9.532,9.532,0,0,1-4.223.976c-.145,0-.289,0-.434-.008-.062,0-.125,0-.187-.007s-.133-.012-.2-.016c-.055,0-.11-.008-.164-.016s-.137-.011-.2-.019l-.164-.024c-.067-.008-.137-.015-.2-.027l-.16-.023-.207-.036c-.051-.011-.1-.019-.152-.031-.133-.023-.266-.055-.4-.086-.046-.008-.093-.019-.136-.031-.071-.016-.141-.035-.211-.051-.051-.015-.1-.027-.153-.043a2,2,0,0,1-.2-.058c-.05-.012-.1-.028-.152-.043-.07-.02-.137-.043-.207-.063-.047-.019-.1-.035-.145-.051l-.211-.07c-.039-.016-.078-.027-.121-.043-.14-.051-.281-.1-.418-.16l-.128-.047c-.067-.027-.137-.059-.2-.086-.05-.019-.1-.043-.144-.062-.067-.028-.137-.059-.2-.09-.047-.02-.094-.043-.141-.063-.07-.031-.137-.062-.2-.094-.047-.023-.09-.042-.137-.066-.066-.035-.136-.066-.207-.1a.455.455,0,0,0-.062-.032c-.153-.078-.3-.156-.449-.234-.04-.024-.083-.047-.125-.07-.067-.036-.133-.071-.2-.11-.047-.027-.094-.051-.14-.078-.063-.035-.129-.074-.192-.113-.047-.028-.09-.051-.137-.078-.062-.039-.128-.078-.191-.118l-.129-.082c-.226-.14-.453-.285-.676-.433-.043-.027-.086-.059-.125-.086l-.183-.125c-.047-.031-.09-.063-.133-.094-.059-.043-.121-.082-.18-.125-.043-.031-.086-.066-.133-.1l-.175-.129c-.043-.032-.082-.063-.125-.094-.118-.086-.235-.176-.352-.266-.031-.023-.066-.051-.1-.074-.054-.047-.113-.09-.171-.137-.039-.031-.082-.066-.125-.1-.055-.047-.11-.09-.164-.133l-.129-.106c-.055-.043-.106-.089-.161-.132l-.128-.106c-.051-.047-.106-.09-.157-.133s-.082-.074-.125-.109l-.281-.246c-.039-.035-.082-.071-.125-.11s-.1-.089-.148-.132l-.121-.11c-.047-.047-.1-.09-.145-.133s-.082-.078-.121-.113-.094-.09-.141-.133-.082-.078-.125-.117-.09-.082-.133-.125-.089-.086-.132-.133c-.075-.07-.149-.14-.219-.211l-.125-.125-.125-.125-.117-.117c-.043-.043-.082-.086-.121-.125s-.079-.082-.118-.121-.078-.078-.117-.121-.078-.082-.117-.121-.074-.078-.109-.117l-.2-.215c-.032-.039-.067-.074-.1-.109s-.078-.083-.117-.125-.067-.075-.1-.114l-.105-.117-.1-.109c-.035-.043-.07-.082-.105-.121l-.094-.106c-.035-.043-.074-.086-.11-.129s-.054-.058-.078-.09c-.058-.07-.117-.136-.175-.2-.024-.031-.051-.058-.075-.09s-.07-.082-.1-.121-.051-.062-.078-.093-.063-.079-.094-.114-.047-.058-.07-.09-.067-.078-.094-.113a1.052,1.052,0,0,1-.067-.086c-.039-.043-.074-.09-.109-.133-.016-.019-.027-.035-.043-.054-.047-.059-.094-.117-.137-.176-.019-.024-.035-.043-.05-.066-.032-.04-.059-.075-.086-.114-.02-.023-.036-.047-.051-.066a1.247,1.247,0,0,1-.078-.106c-.016-.019-.032-.043-.047-.062a1.25,1.25,0,0,1-.078-.106l-.039-.05c-.036-.051-.075-.1-.106-.149-.074-.1-.14-.2-.2-.3-.019-.031-.035-.062-.055-.093-.043-.067-.082-.133-.121-.2-.019-.039-.039-.074-.058-.113-.032-.058-.063-.117-.09-.176-.02-.039-.035-.078-.055-.117-.027-.058-.051-.113-.074-.168s-.031-.082-.047-.121c-.019-.055-.039-.109-.059-.164-.011-.039-.023-.078-.035-.113a1.5,1.5,0,0,1-.047-.164c-.011-.035-.019-.075-.031-.114s-.023-.1-.031-.16c-.008-.035-.016-.07-.024-.109s-.015-.106-.023-.16c0-.035-.008-.067-.012-.1,0-.055-.007-.109-.011-.164,0-.031,0-.062,0-.094,0-.058,0-.117,0-.175v-.079c0-.078.008-.156.015-.23v-.016c.008-.082.02-.16.032-.242,0-.019.011-.043.015-.066a1.575,1.575,0,0,1,.035-.168.808.808,0,0,1,.02-.086c.012-.047.023-.094.039-.141a.939.939,0,0,1,.031-.094c.012-.039.028-.082.043-.125s.024-.062.035-.1.032-.078.047-.113.028-.067.043-.1.035-.074.051-.109a1.015,1.015,0,0,1,.051-.1c.015-.035.035-.067.054-.1s.036-.062.055-.1a.941.941,0,0,1,.055-.09.813.813,0,0,1,.062-.1c.016-.027.035-.055.055-.086s.047-.062.07-.1.032-.047.051-.071.051-.07.078-.1.024-.028.035-.043a4.526,4.526,0,0,1,.36-.4l.011-.011c.04-.039.079-.075.118-.114l.007,0a5.358,5.358,0,0,0,.415-.433c-.008-.043-.02-.082-.028-.125a.845.845,0,0,1-.019-.1c-.028-.121-.051-.242-.075-.363,0-.027-.007-.059-.011-.086-.02-.1-.035-.2-.055-.3l-.012-.093c-.019-.122-.035-.247-.05-.368,0-.027-.008-.054-.012-.086-.012-.1-.028-.2-.035-.3,0-.032-.008-.059-.012-.09-.012-.121-.024-.242-.031-.363,0-.024,0-.051-.008-.079-.008-.105-.016-.207-.024-.312,0-.023,0-.047,0-.07-.008-.121-.012-.243-.02-.364v-.066c-.008-.1-.008-.215-.012-.32,0-.016,0-.035,0-.051,0-.121,0-.238,0-.356v-.4c0-.117,0-.234,0-.348v-.031c.008-.23.016-.453.024-.664v-.008c.012-.211.023-.414.035-.6l0-.008a3.976,3.976,0,0,0,.973,2.695l.007.008a1.907,1.907,0,0,0,.184.164c-.008-.043-.012-.086-.02-.125,0-.023,0-.043-.007-.066-.016-.141-.032-.278-.043-.41a.673.673,0,0,0-.008-.094c-.012-.149-.02-.293-.024-.434,0-.027,0-.054,0-.086,0-.125,0-.246,0-.367v-.066c0-.133.007-.266.015-.391,0-.031,0-.062,0-.094.012-.121.02-.242.035-.359v-.02c.016-.125.031-.242.051-.359,0-.027.012-.055.016-.086.019-.113.043-.226.066-.332l.012-.047c.019-.1.047-.191.074-.285a.4.4,0,0,1,.02-.074c.027-.1.058-.2.093-.3.008-.023.016-.043.024-.062.031-.086.062-.168.093-.25.008-.016.016-.036.024-.051a2.672,2.672,0,0,1,.117-.266c.012-.023.02-.043.031-.066.039-.078.078-.157.121-.231l.016-.027c.043-.082.09-.16.141-.238.011-.02.023-.036.035-.055.047-.078.1-.152.148-.223l.02-.023c.047-.067.094-.133.144-.195a.429.429,0,0,1,.035-.043c.055-.067.11-.133.165-.2l.031-.035c.051-.055.1-.109.152-.16l.027-.031c.047-.047.094-.09.137-.133a12.478,12.478,0,0,1-2.4-5.2c-.551-4.731,5.2-7.024,5.2-7.024-.086.051-.168.106-.25.156-.027.016-.051.036-.074.051-.055.039-.11.074-.164.11-.028.019-.055.043-.082.062-.051.035-.1.07-.141.106s-.059.043-.086.066l-.129.105c-.027.024-.054.043-.078.067-.043.039-.086.074-.125.113l-.07.063c-.043.043-.086.082-.129.125l-.055.054c-.051.051-.1.106-.148.157l-.024.027-.164.187-.019.032c-.043.05-.086.105-.129.16-.012.019-.028.039-.039.058-.035.043-.067.09-.1.133-.016.024-.027.047-.043.071-.027.039-.058.085-.082.128-.016.024-.031.047-.043.067-.027.047-.051.09-.078.133-.012.023-.023.047-.035.07-.024.043-.047.09-.07.137a.3.3,0,0,0-.032.062c-.027.051-.051.106-.074.156a.155.155,0,0,1-.019.043c-.059.137-.11.278-.153.414a.183.183,0,0,0-.015.047c-.016.055-.032.106-.047.157a.482.482,0,0,0-.016.066.908.908,0,0,0-.035.141.466.466,0,0,0-.016.074c-.011.043-.019.09-.027.133a.584.584,0,0,0-.016.074c-.008.047-.015.094-.019.137,0,.023-.008.046-.012.074-.008.047-.012.094-.016.14,0,.024,0,.043-.007.063l-.012.176v.031c0,.07-.008.137-.008.207v.047c0,.051,0,.105,0,.156,0,.024,0,.047,0,.074,0,.043,0,.086.008.125a.67.67,0,0,0,.008.086.832.832,0,0,0,.011.114.669.669,0,0,0,.008.089c0,.036.012.075.016.11s.007.058.011.09a.88.88,0,0,1,.02.109c.008.027.012.059.019.086s.016.074.024.109a.823.823,0,0,0,.019.086c.008.039.02.082.032.121s.027.1.039.149.019.066.031.1.02.067.031.1.02.059.028.086a.867.867,0,0,1,.039.1c.011.023.019.05.031.078s.027.066.039.1a.546.546,0,0,1,.031.071l.047.105c.012.024.02.043.031.066s.035.071.051.106c.008.019.02.035.027.055.02.039.04.074.059.113l.016.027a4.542,4.542,0,0,0,.25.4l.015.019a1.328,1.328,0,0,0,.078.113l.024.036.082.105.027.035c.028.031.055.067.082.1l.028.031c.031.035.058.066.089.1l.024.027c.031.035.062.066.094.1l.007.007a4.746,4.746,0,0,0,.473.411l.012.007c.035.028.074.051.109.078l.024.016c.035.024.074.047.109.07l.027.016c.036.023.075.043.11.063l.027.015.113.059.02.008a2.958,2.958,0,0,0,.535.2h.008c.039.011.078.019.117.027l.035.008c.035.008.074.012.11.019.015,0,.027,0,.043,0a.938.938,0,0,0,.105.012,2.087,2.087,0,0,0,.227.012,2.414,2.414,0,0,0,1.046-.239c3.524-1.652-.195-5.441,4.106-7.277a5.364,5.364,0,0,0,2.676-8.058c-1.379-2.137,1.109-4.872,1.109-4.872" fill="#4b1615"/>
    </g>
  </g>
</svg>
